<svg width="96" height="84" viewBox="0 0 96 84" fill="none" xmlns="http://www.w3.org/2000/svg">
<path d="M83 26.6676V56.6676M83 26.6676C83 21.1448 78.5228 16.6676 73 16.6676H68M83 26.6676C88.5228 26.6676 93 31.1448 93 36.6676V46.6676C93 52.1904 88.5228 56.6676 83 56.6676M83 56.6676C83 62.1904 78.5228 66.6676 73 66.6676L63 66.6676M18 16.6676H13C7.47715 16.6676 3 21.1448 3 26.6676V56.6676C3 62.1904 7.47715 66.6676 13 66.6676H18M53.419 3.72767L19.0345 39.8314C16.7607 42.2188 18.453 46.1676 21.75 46.1676H33.5894C36.1264 46.1676 37.9312 48.6342 37.1636 51.0523L28.8072 77.375C28.0851 79.6496 30.9351 81.3357 32.581 79.6075L66.9655 43.5038C69.2393 41.1163 67.547 37.1676 64.25 37.1676H52.4106C49.8736 37.1676 48.0687 34.701 48.8364 32.2829L57.1928 5.9602C57.9149 3.68556 55.0648 1.99951 53.419 3.72767Z" stroke="#2F5597" stroke-width="6" stroke-linecap="round" stroke-linejoin="round"/>
</svg>
