<svg width="112" height="112" viewBox="0 0 112 112" fill="none" xmlns="http://www.w3.org/2000/svg">
<path d="M84.4084 29.0734L59.964 20.6924C57.3947 19.8115 54.6053 19.8115 52.036 20.6924L27.5916 29.0734C22.6515 30.7671 19.3333 35.4125 19.3333 40.6349V68.0533C19.3333 72.8366 22.1237 77.1804 26.4741 79.1691L50.9185 90.3437C54.1456 91.8189 57.8544 91.8189 61.0815 90.3437L85.526 79.1691C89.8763 77.1804 92.6667 72.8366 92.6667 68.0533V40.6349C92.6667 35.4125 89.3485 30.7671 84.4084 29.0734Z" fill="white"/>
<path d="M56 42.1325L86.5555 31.5556M56 42.1325L25.4444 31.5556M56 42.1325V86.5555M86.5555 1L98.7778 1C105.528 1 111 6.47207 111 13.2222V25.4444M86.5555 111H98.7778C105.528 111 111 105.528 111 98.7778V86.5555M25.4444 1L13.2222 1C6.47207 1 1 6.47207 1 13.2222L1 25.4444M25.4444 111H13.2222C6.47207 111 1 105.528 1 98.7778L1 86.5555M59.964 20.6924L84.4084 29.0734C89.3485 30.7671 92.6667 35.4125 92.6667 40.6349V68.0533C92.6667 72.8366 89.8763 77.1804 85.526 79.1691L61.0815 90.3437C57.8544 91.8189 54.1456 91.8189 50.9185 90.3437L26.4741 79.1691C22.1237 77.1804 19.3333 72.8366 19.3333 68.0533V40.6349C19.3333 35.4125 22.6515 30.7671 27.5916 29.0734L52.036 20.6924C54.6053 19.8115 57.3947 19.8115 59.964 20.6924Z" stroke="#4472C4" stroke-width="2" stroke-linecap="round" stroke-linejoin="round"/>
</svg>
