<svg width="112" height="112" viewBox="0 0 112 112" fill="none" xmlns="http://www.w3.org/2000/svg">
<path d="M106.974 10.3884L101.617 5.03204C96.6891 0.104333 88.6995 0.104319 83.7716 5.03201L12.8814 75.9197C11.4962 77.3049 10.4526 78.9935 9.83308 80.8519L1.16929 106.842C0.347237 109.309 2.69347 111.655 5.15964 110.833L31.151 102.169C33.0095 101.55 34.6982 100.506 36.0834 99.1209L106.974 28.2332C111.901 23.3055 111.901 15.3161 106.974 10.3884Z" fill="white"/>
<path d="M55.5324 33.2254L27.0019 4.69577C22.074 -0.231927 14.0844 -0.231924 9.15651 4.69578L4.71101 9.14114C-0.223036 14.075 -0.215937 22.0766 4.72685 27.0017L32.9618 55.1358M56.6841 78.989L84.9993 107.303C89.9272 112.231 97.9169 112.231 102.845 107.303L107.306 102.842C112.234 97.9144 112.234 89.9251 107.306 84.9974L79.5095 57.2017M100.566 82.8126L91.6437 91.735M86.2901 68.5368L77.3674 77.4592M43.4612 25.7093L34.5385 34.6317M29.1849 11.4334L20.2622 20.3558M78.0403 15.0369L96.9682 33.9642M101.617 5.03204L106.974 10.3884C111.901 15.3161 111.901 23.3055 106.974 28.2332L36.0834 99.1209C34.6982 100.506 33.0095 101.55 31.151 102.169L5.15964 110.833C2.69347 111.655 0.347237 109.309 1.16929 106.842L9.83308 80.8519C10.4526 78.9935 11.4962 77.3049 12.8814 75.9197L83.7716 5.03201C88.6995 0.104319 96.6891 0.104333 101.617 5.03204Z" stroke="#4472C4" stroke-width="2" stroke-linecap="round" stroke-linejoin="round"/>
</svg>
