<svg width="112" height="106" viewBox="0 0 112 106" fill="none" xmlns="http://www.w3.org/2000/svg">
<path d="M71.2778 16.2941C71.2778 24.7408 64.4377 31.5882 56 31.5882C47.5623 31.5882 40.7222 24.7408 40.7222 16.2941C40.7222 16.1435 40.7244 15.9934 40.7287 15.8438C40.9667 7.60538 47.7128 1 56 1C64.2872 1 71.0333 7.60537 71.2713 15.8438C71.2756 15.9934 71.2778 16.1435 71.2778 16.2941Z" fill="white"/>
<path d="M31.5556 86.6471C31.5556 90.0913 30.4183 93.2696 28.4991 95.8262C25.7117 99.5395 21.2749 101.941 16.2778 101.941C7.84009 101.941 1 95.0938 1 86.6471C1 79.6915 5.63828 73.8203 11.9875 71.9642C13.3485 71.5663 14.7883 71.3529 16.2778 71.3529C24.7155 71.3529 31.5556 78.2004 31.5556 86.6471Z" fill="white"/>
<path d="M111 86.6471C111 95.0938 104.16 101.941 95.7222 101.941C90.7251 101.941 86.2883 99.5395 83.5009 95.8262C81.5817 93.2696 80.4444 90.0913 80.4444 86.6471C80.4444 78.2004 87.2845 71.3529 95.7222 71.3529C97.2117 71.3529 98.6515 71.5663 100.013 71.9642C106.362 73.8203 111 79.6915 111 86.6471Z" fill="white"/>
<path d="M11.9875 71.9642C5.63828 73.8203 1 79.6915 1 86.6471C1 95.0938 7.84009 101.941 16.2778 101.941C21.2749 101.941 25.7117 99.5395 28.4991 95.8262M11.9875 71.9642C13.3485 71.5663 14.7883 71.3529 16.2778 71.3529C24.7155 71.3529 31.5556 78.2004 31.5556 86.6471C31.5556 90.0913 30.4183 93.2696 28.4991 95.8262M11.9875 71.9642C10.8022 67.8878 10.1667 63.577 10.1667 59.1176C10.1667 39.1378 22.9238 22.1406 40.7287 15.8438M28.4991 95.8262C36.1595 101.587 45.6815 105 56 105C66.3185 105 75.8405 101.587 83.5009 95.8262M40.7287 15.8438C40.7244 15.9934 40.7222 16.1435 40.7222 16.2941C40.7222 24.7408 47.5623 31.5882 56 31.5882C64.4377 31.5882 71.2778 24.7408 71.2778 16.2941C71.2778 16.1435 71.2756 15.9934 71.2713 15.8438M40.7287 15.8438C40.9667 7.60538 47.7128 1 56 1C64.2872 1 71.0333 7.60537 71.2713 15.8438M71.2713 15.8438C89.0762 22.1406 101.833 39.1378 101.833 59.1176C101.833 63.577 101.198 67.8878 100.013 71.9642M100.013 71.9642C98.6515 71.5663 97.2117 71.3529 95.7222 71.3529C87.2845 71.3529 80.4444 78.2004 80.4444 86.6471C80.4444 90.0913 81.5817 93.2696 83.5009 95.8262M100.013 71.9642C106.362 73.8203 111 79.6915 111 86.6471C111 95.0938 104.16 101.941 95.7222 101.941C90.7251 101.941 86.2883 99.5395 83.5009 95.8262" stroke="#4472C4" stroke-width="2" stroke-linecap="round" stroke-linejoin="round"/>
</svg>
