<svg width="24" height="24" viewBox="0 0 24 24" fill="none" xmlns="http://www.w3.org/2000/svg">
<path d="M16.5241 8.95312L11.7915 15.3411C11.2685 16.0469 10.2957 16.1044 9.70506 15.4644L7.75 13.3459" stroke="black" stroke-width="2" stroke-linecap="round" stroke-linejoin="round"/>
<path d="M13.2758 2.71153C13.5261 2.55045 13.6512 2.46991 13.7527 2.41745C15.0353 1.75431 16.6092 2.35957 17.1169 3.71121C17.1571 3.81815 17.196 3.96178 17.2739 4.24903C17.3098 4.38166 17.3278 4.44798 17.3479 4.50899C17.5911 5.24813 18.1762 5.82443 18.9189 6.05652C18.9802 6.07568 19.0468 6.09265 19.18 6.12659L19.3607 6.17267C19.9864 6.33216 20.2992 6.41191 20.5277 6.52521C21.5662 7.0402 22.0912 8.22131 21.7777 9.33726C21.7087 9.58278 21.5583 9.86843 21.2574 10.4397L21.1705 10.6048C21.1065 10.7264 21.0745 10.7872 21.0476 10.8455C20.7223 11.5524 20.7581 12.3728 21.1438 13.0487C21.1756 13.1045 21.2128 13.1622 21.2872 13.2778C21.4482 13.528 21.5288 13.6532 21.5812 13.7546C22.2444 15.0372 21.6391 16.6111 20.2875 17.1189C20.1805 17.1591 20.0369 17.198 19.7496 17.2758C19.617 17.3118 19.5507 17.3298 19.4897 17.3498C18.7505 17.5931 18.1743 18.1781 17.9422 18.9209C17.923 18.9822 17.906 19.0488 17.8721 19.1819L17.826 19.3627C17.6665 19.9883 17.5868 20.3012 17.4735 20.5297C16.9585 21.5681 15.7774 22.0931 14.6614 21.7796C14.4159 21.7106 14.1302 21.5602 13.5589 21.2594L13.3939 21.1725C13.2723 21.1085 13.2115 21.0764 13.1531 21.0496C12.4463 20.7242 11.6258 20.76 10.95 21.1457C10.8942 21.1776 10.8365 21.2147 10.7209 21.2891C10.4706 21.4502 10.3455 21.5307 10.244 21.5832C8.96146 22.2463 7.38757 21.6411 6.87979 20.2894C6.83962 20.1825 6.80069 20.0389 6.72284 19.7516C6.68689 19.619 6.66892 19.5527 6.64884 19.4916C6.40559 18.7525 5.82054 18.1762 5.07781 17.9441C5.0165 17.925 4.94993 17.908 4.81677 17.874L4.636 17.828C4.01033 17.6685 3.6975 17.5887 3.46903 17.4754C2.43055 16.9604 1.90555 15.7793 2.21907 14.6634C2.28805 14.4179 2.43846 14.1322 2.73929 13.5609L2.82621 13.3958C2.89023 13.2742 2.92224 13.2134 2.94909 13.1551C3.27446 12.4482 3.23866 11.6278 2.85296 10.952C2.82113 10.8962 2.78394 10.8384 2.70957 10.7229C2.5485 10.4726 2.46796 10.3475 2.41549 10.246C1.75236 8.96341 2.35762 7.38952 3.70926 6.88175C3.81619 6.84157 3.95982 6.80265 4.24708 6.72479C4.37971 6.68885 4.44602 6.67087 4.50704 6.65079C5.24618 6.40754 5.82248 5.82249 6.05457 5.07977C6.07372 5.01846 6.09069 4.95188 6.12464 4.81873L6.17072 4.63795C6.33021 4.01229 6.40995 3.69945 6.52326 3.47098C7.03824 2.43251 8.21935 1.9075 9.3353 2.22103C9.58082 2.29001 9.86648 2.44042 10.4378 2.74124L10.6029 2.82816C10.7245 2.89218 10.7852 2.92419 10.8436 2.95105C11.5504 3.27641 12.3709 3.24062 13.0467 2.85492C13.1025 2.82308 13.1603 2.78589 13.2758 2.71153Z" stroke="black" stroke-width="2" stroke-linecap="round" stroke-linejoin="round"/>
</svg>
