<svg width="81" height="90" viewBox="0 0 81 90" fill="none" xmlns="http://www.w3.org/2000/svg">
<path d="M59.25 33.8252L21.75 12.2002" stroke="#2F5597" stroke-width="6" stroke-linecap="round" stroke-linejoin="round"/>
<path d="M78 61.3248V27.9915C77.9985 26.5301 77.6127 25.0948 76.8814 23.8296C76.1501 22.5644 75.0989 21.5138 73.8333 20.7831L44.6667 4.11645C43.3998 3.38505 41.9628 3 40.5 3C39.0372 3 37.6002 3.38505 36.3333 4.11645L7.16667 20.7831C5.90109 21.5138 4.84992 22.5644 4.11859 23.8296C3.38726 25.0948 3.0015 26.5301 3 27.9915V61.3248C3.0015 62.7861 3.38726 64.2214 4.11859 65.4866C4.84992 66.7518 5.90109 67.8024 7.16667 68.5331L36.3333 85.1998C37.6002 85.9312 39.0372 86.3162 40.5 86.3162C41.9628 86.3162 43.3998 85.9312 44.6667 85.1998L73.8333 68.5331C75.0989 67.8024 76.1501 66.7518 76.8814 65.4866C77.6127 64.2214 77.9985 62.7861 78 61.3248Z" stroke="#2F5597" stroke-width="6" stroke-linecap="round" stroke-linejoin="round"/>
<path d="M4.12305 23.6587L40.498 44.7004L76.873 23.6587" stroke="#2F5597" stroke-width="6" stroke-linecap="round" stroke-linejoin="round"/>
<path d="M40.5 86.6587V44.6587" stroke="#2F5597" stroke-width="6" stroke-linecap="round" stroke-linejoin="round"/>
</svg>
