<svg width="98" height="86" viewBox="0 0 98 86" fill="none" xmlns="http://www.w3.org/2000/svg">
<path d="M83.4805 30.3287V60.727C83.4805 63.545 82.1515 66.1964 79.8981 67.8738C63.2074 80.298 40.3963 80.298 23.7057 67.8738C21.4522 66.1964 20.1232 63.545 20.1232 60.727V32.3545M60.4415 19.3313L90.9234 28.691C93.3455 29.4348 95 31.6813 95 34.2264V64.809M95 75.4204V83M54.6302 40.4759L90.987 27.6885C96.1296 25.8797 96.1297 18.5711 90.987 16.7623L54.6302 3.97485C50.9346 2.67505 46.9094 2.67505 43.2138 3.97485L6.85702 16.7623C1.71433 18.571 1.71432 25.8797 6.85701 27.6885L43.2138 40.4759C46.9093 41.7757 50.9346 41.7757 54.6302 40.4759Z" stroke="#2F5597" stroke-width="6" stroke-linecap="round" stroke-linejoin="round"/>
</svg>
