<svg width="24" height="24" viewBox="0 0 24 24" fill="none" xmlns="http://www.w3.org/2000/svg">
<path d="M10.2 2H5.4C4.07452 2 3 3.05345 3 4.35294V18.4706C3 19.7701 4.07452 20.8235 5.4 20.8235H11.4M10.2 2H10.4059C11.0424 2 11.6529 2.2479 12.1029 2.68916L16.6971 7.19319C17.1471 7.63446 17.4 8.23293 17.4 8.85697V9.05882M10.2 2V6.70588C10.2 8.00538 11.2745 9.05882 12.6 9.05882H17.4M17.4 9.05882V11.4118M17.4 22C17.7181 22 20.981 20.7111 21 16.3119C21 16.2852 20.9854 16.2601 20.961 16.2448C19.4609 15.3358 17.5627 14.3529 17.4 14.3529C17.2373 14.3529 15.3391 15.3358 13.839 16.2448C13.8146 16.2601 13.8 16.2852 13.8 16.3119C13.819 20.7111 17.082 22 17.4 22Z" stroke="black" stroke-width="2" stroke-linecap="round" stroke-linejoin="round"/>
</svg>
