<svg width="2130" height="732" viewBox="0 0 2130 732" fill="none" xmlns="http://www.w3.org/2000/svg">
<mask id="mask0_467_2" style="mask-type:luminance" maskUnits="userSpaceOnUse" x="0" y="0" width="2130" height="732">
<path d="M2130 0H0V732H2130V0Z" fill="white"/>
</mask>
<g mask="url(#mask0_467_2)">
<path d="M899 552H670" stroke="white" stroke-width="7" stroke-linecap="round" stroke-linejoin="round"/>
<path d="M2096 552L1857 552" stroke="white" stroke-width="7" stroke-linecap="round" stroke-linejoin="round"/>
<path d="M1780.33 520.856H1823.47V574.503H1830.18V600.856H1821.54V583.19H1772.8V600.856H1764.18V574.503H1769.71C1777.09 564.407 1780.64 546.525 1780.33 520.856ZM1789.07 529.602C1788.29 549.831 1785.18 564.799 1779.75 574.503H1813.03V529.602H1789.07Z" fill="white"/>
<path d="M1705.18 551.856C1705.18 540.164 1708.42 531.502 1714.91 525.873C1720.32 521.196 1726.93 518.856 1734.71 518.856C1743.37 518.856 1750.43 521.711 1755.93 527.419C1761.42 533.088 1764.18 540.936 1764.18 550.964C1764.18 559.091 1762.95 565.493 1760.5 570.171C1758.08 574.807 1754.54 578.415 1749.89 580.991C1745.26 583.568 1740.2 584.856 1734.71 584.856C1725.89 584.856 1718.76 582.022 1713.3 576.354C1707.89 570.685 1705.18 562.52 1705.18 551.856ZM1716.16 551.856C1716.16 559.943 1717.91 566.008 1721.43 570.051C1724.95 574.054 1729.37 576.057 1734.71 576.057C1740 576.057 1744.41 574.035 1747.93 569.991C1751.45 565.949 1753.2 559.785 1753.2 551.5C1753.2 543.691 1751.43 537.785 1747.87 533.781C1744.35 529.737 1739.97 527.716 1734.71 527.716C1729.37 527.716 1724.95 529.718 1721.43 533.722C1717.91 537.725 1716.16 543.771 1716.16 551.856Z" fill="white"/>
<path d="M1648.18 520.856H1672.93C1679.01 520.856 1683.53 521.362 1686.47 522.374C1689.45 523.348 1691.99 525.157 1694.1 527.804C1696.24 530.45 1697.31 533.622 1697.31 537.319C1697.31 540.277 1696.68 542.865 1695.41 545.083C1694.17 547.263 1692.3 549.092 1689.8 550.571C1692.78 551.545 1695.26 553.373 1697.2 556.06C1699.18 558.705 1700.18 561.859 1700.18 565.516C1699.79 571.394 1697.63 575.753 1693.74 578.594C1689.84 581.435 1684.17 582.856 1676.75 582.856H1648.18V520.856ZM1658.91 546.952H1670.36C1674.93 546.952 1678.08 546.718 1679.78 546.251C1681.5 545.784 1683.02 544.851 1684.38 543.449C1685.73 542.01 1686.41 540.297 1686.41 538.312C1686.41 535.043 1685.21 532.765 1682.82 531.482C1680.49 530.197 1676.45 529.555 1670.73 529.555H1658.91V546.952ZM1658.91 574.215H1673.05C1679.12 574.215 1683.3 573.535 1685.57 572.172C1687.83 570.771 1689.03 568.378 1689.15 564.992C1689.15 563.006 1688.49 561.177 1687.18 559.504C1685.88 557.791 1684.16 556.721 1682.05 556.293C1679.94 555.826 1676.56 555.592 1671.91 555.592H1658.91V574.215Z" fill="white"/>
<path d="M1624.12 575.64C1620.24 579.009 1616.49 581.388 1612.87 582.775C1609.3 584.162 1605.45 584.856 1601.34 584.856C1594.53 584.856 1589.31 583.172 1585.65 579.802C1582.01 576.394 1580.18 572.053 1580.18 566.781C1580.18 563.69 1580.85 560.875 1582.21 558.338C1583.62 555.761 1585.42 553.699 1587.63 552.154C1589.89 550.608 1592.42 549.438 1595.22 548.646C1597.27 548.091 1600.38 547.556 1604.54 547.04C1613.01 546.009 1619.25 544.781 1623.25 543.354C1623.29 541.887 1623.31 540.956 1623.31 540.559C1623.31 536.199 1622.32 533.127 1620.34 531.343C1617.66 528.925 1613.67 527.716 1608.39 527.716C1603.46 527.716 1599.8 528.608 1597.43 530.392C1595.1 532.136 1593.36 535.248 1592.24 539.727L1581.98 538.3C1582.92 533.821 1584.46 530.214 1586.59 527.478C1588.73 524.704 1591.81 522.583 1595.85 521.116C1599.89 519.61 1604.58 518.856 1609.9 518.856C1615.18 518.856 1619.49 519.492 1622.79 520.76C1626.08 522.028 1628.52 523.633 1630.07 525.576C1631.63 527.478 1632.71 529.897 1633.33 532.83C1633.69 534.653 1633.85 537.943 1633.85 542.699V556.97C1633.85 566.92 1634.07 573.223 1634.5 575.878C1634.97 578.495 1635.86 581.012 1637.18 583.43H1626.22C1625.14 581.21 1624.44 578.614 1624.12 575.64ZM1623.25 551.737C1619.44 553.324 1613.73 554.671 1606.11 555.781C1601.81 556.415 1598.75 557.129 1596.97 557.921C1595.18 558.715 1593.79 559.883 1592.83 561.43C1591.85 562.936 1591.37 564.621 1591.37 566.483C1591.37 569.338 1592.42 571.716 1594.52 573.618C1596.65 575.521 1599.76 576.472 1603.84 576.472C1607.88 576.472 1611.47 575.58 1614.62 573.798C1617.77 571.974 1620.08 569.496 1621.56 566.364C1622.69 563.946 1623.25 560.38 1623.25 555.662V551.737Z" fill="white"/>
<path d="M1544.01 554.889V546.506C1548.48 546.465 1551.52 546.287 1553.13 545.97C1554.77 545.653 1556.32 544.702 1557.78 543.116C1559.22 541.531 1559.94 539.549 1559.94 537.171C1559.94 534.277 1558.98 531.977 1557.07 530.273C1555.18 528.528 1552.73 527.657 1549.71 527.657C1543.75 527.657 1539.57 531.204 1537.18 538.3L1527.12 536.635C1530.26 524.784 1537.82 518.856 1549.82 518.856C1556.5 518.856 1561.72 520.701 1565.48 524.387C1569.28 528.072 1571.18 532.474 1571.18 537.587C1571.18 542.74 1568.71 546.842 1563.77 549.894C1566.91 551.598 1569.27 553.779 1570.83 556.436C1572.4 559.051 1573.18 562.164 1573.18 565.77C1573.18 571.439 1571.14 576.037 1567.06 579.565C1562.98 583.092 1557.28 584.856 1549.95 584.856C1535.71 584.856 1527.46 578.455 1525.18 565.652L1535.12 563.51C1536.02 567.554 1537.85 570.685 1540.6 572.906C1543.37 575.124 1546.55 576.235 1550.12 576.235C1553.7 576.235 1556.65 575.224 1559.01 573.203C1561.4 571.141 1562.59 568.525 1562.59 565.354C1562.59 562.896 1561.86 560.756 1560.36 558.932C1558.87 557.109 1557.28 555.979 1555.6 555.544C1553.9 555.067 1550.85 554.83 1546.41 554.83C1546.06 554.83 1545.26 554.849 1544.01 554.889Z" fill="white"/>
<path d="M1432.18 520.472H1442.9V568.052L1472.62 520.472H1484.18V582.856H1473.46V535.568L1443.73 582.856H1432.18V520.472ZM1469.4 496.856H1476.73C1476.13 501.752 1474.3 505.511 1471.25 508.135C1468.23 510.76 1464.2 512.071 1459.16 512.071C1454.07 512.071 1450.01 510.779 1446.95 508.194C1443.93 505.571 1442.13 501.791 1441.52 496.856H1448.86C1449.41 499.52 1450.5 501.518 1452.13 502.848C1453.8 504.141 1456.02 504.788 1458.81 504.788C1462.02 504.788 1464.44 504.16 1466.07 502.907C1467.74 501.615 1468.85 499.599 1469.4 496.856Z" fill="white"/>
<path d="M1407.57 520.856H1418.18V582.856H1407.57V520.856ZM1348.18 520.856H1358.79V545.083H1372.25C1381.01 545.083 1387.76 546.777 1392.47 550.163C1397.23 553.51 1399.61 558.142 1399.61 564.058C1399.61 569.234 1397.62 573.67 1393.65 577.367C1389.72 581.026 1383.42 582.856 1374.72 582.856H1348.18V520.856ZM1358.79 574.215H1369.95C1376.67 574.215 1381.47 573.399 1384.33 571.764C1387.2 570.13 1388.65 567.579 1388.65 564.116C1388.65 561.431 1387.58 559.037 1385.46 556.934C1383.33 554.833 1378.63 553.782 1371.36 553.782H1358.79V574.215Z" fill="white"/>
<path d="M1283.18 520.856H1293.66V546.66H1322.7V520.856H1333.18V582.856H1322.7V555.359H1293.66V582.856H1283.18V520.856Z" fill="white"/>
<path d="M1222.18 520.856H1232.71V545.083H1246.04C1254.74 545.083 1261.43 546.777 1266.1 550.163C1270.82 553.51 1273.18 558.142 1273.18 564.058C1273.18 569.234 1271.21 573.67 1267.28 577.367C1263.37 581.026 1257.12 582.856 1248.5 582.856H1222.18V520.856ZM1232.71 574.215H1243.77C1250.43 574.215 1255.19 573.399 1258.03 571.764C1260.87 570.13 1262.3 567.579 1262.3 564.116C1262.3 561.431 1261.25 559.037 1259.14 556.934C1257.04 554.833 1252.38 553.782 1245.16 553.782H1232.71V574.215Z" fill="white"/>
<path d="M1158.91 520.856H1208.18V583.445H1197.63V529.638H1169.52V560.813C1169.52 568.082 1169.28 572.876 1168.81 575.193C1168.34 577.512 1167.05 579.534 1164.92 581.264C1162.81 582.993 1159.73 583.856 1155.73 583.856C1153.25 583.856 1150.4 583.699 1147.18 583.385V574.545H1151.84C1154.03 574.545 1155.6 574.33 1156.55 573.897C1157.49 573.425 1158.12 572.699 1158.44 571.716C1158.75 570.733 1158.91 567.532 1158.91 562.11V520.856Z" fill="white"/>
<path d="M1134.82 563.095L1145.83 564.462C1144.1 570.924 1140.87 575.938 1136.17 579.506C1131.48 583.072 1125.47 584.856 1118.16 584.856C1108.96 584.856 1101.65 582.022 1096.24 576.354C1090.86 570.646 1088.18 562.659 1088.18 552.392C1088.18 541.768 1090.9 533.524 1096.36 527.657C1101.81 521.791 1108.88 518.856 1117.57 518.856C1125.98 518.856 1132.86 521.73 1138.19 527.478C1143.52 533.227 1146.18 541.312 1146.18 551.737C1146.18 552.373 1146.17 553.324 1146.12 554.591H1099.21C1099.6 561.528 1101.55 566.841 1105.06 570.527C1108.58 574.213 1112.97 576.057 1118.21 576.057C1122.13 576.057 1125.47 575.026 1128.23 572.964C1131 570.903 1133.2 567.614 1134.82 563.095ZM1099.79 545.792H1134.93C1134.45 540.481 1133.11 536.496 1130.9 533.841C1127.51 529.718 1123.11 527.657 1117.68 527.657C1112.79 527.657 1108.67 529.302 1105.3 532.591C1101.99 535.882 1100.14 540.281 1099.79 545.792Z" fill="white"/>
<path d="M1034.18 520.856H1085.18V529.555H1064.96V582.856H1054.38V529.555H1034.18V520.856Z" fill="white"/>
<path d="M973.18 551.856C973.18 540.164 976.425 531.502 982.901 525.873C988.328 521.196 994.917 518.856 1002.71 518.856C1011.37 518.856 1018.44 521.711 1023.94 527.419C1029.44 533.088 1032.18 540.936 1032.18 550.964C1032.18 559.091 1030.96 565.493 1028.5 570.171C1026.1 574.807 1022.56 578.415 1017.9 580.991C1013.27 583.568 1008.2 584.856 1002.71 584.856C993.895 584.856 986.762 582.022 981.306 576.354C975.893 570.685 973.18 562.52 973.18 551.856ZM984.146 551.856C984.146 559.943 985.908 566.008 989.433 570.051C992.944 574.054 997.378 576.057 1002.71 576.057C1008.01 576.057 1012.42 574.035 1015.94 569.991C1019.45 565.949 1021.21 559.785 1021.21 551.5C1021.21 543.691 1019.44 537.785 1015.87 533.781C1012.36 529.737 1007.97 527.716 1002.71 527.716C997.378 527.716 992.944 529.718 989.433 533.722C985.908 537.725 984.146 543.771 984.146 551.856Z" fill="white"/>
<path d="M925.18 520.856H935.822V547.653C939.211 547.653 941.582 547.01 942.921 545.726C944.302 544.442 946.311 540.706 948.947 534.517C951.039 529.613 952.727 526.383 954.038 524.827C955.335 523.269 956.827 522.218 958.529 521.673C960.217 521.129 962.937 520.856 966.689 520.856H968.823V529.555L965.866 529.496C963.062 529.496 961.263 529.905 960.482 530.722C959.645 531.578 958.389 534.127 956.688 538.37C955.084 542.417 953.605 545.22 952.253 546.777C950.914 548.333 948.849 549.754 946.046 551.039C950.621 552.246 955.112 556.448 959.533 563.649L971.18 582.856H959.477L948.124 563.649C945.795 559.796 943.758 557.266 942.029 556.06C940.299 554.814 938.221 554.191 935.822 554.191V582.856H925.18V520.856Z" fill="white"/>
<path d="M2046.61 277.137C2079.87 286.081 2096.49 306.992 2096.49 339.87C2096.49 366.954 2086.04 389.188 2065.13 406.573C2044.34 423.831 2014.93 432.46 1976.88 432.46C1911.88 432.46 1871.51 405.187 1855.76 350.641L1936.64 344.594C1941.17 363.868 1954.08 373.505 1975.37 373.505C1987.21 373.505 1996.16 370.545 2002.2 364.624C2008.38 358.703 2011.46 350.452 2011.46 339.87C2011.46 329.667 2007.62 321.416 1999.94 315.117C1992.25 308.692 1981.73 305.48 1968.38 305.48H1945.14V255.973H1963.47C1974.43 255.973 1982.99 253.139 1989.17 247.47C1995.46 241.676 1998.61 233.676 1998.61 223.473C1998.61 208.482 1989.23 200.987 1970.46 200.987C1951.06 200.987 1939.78 209.616 1936.64 226.874L1860.11 217.993C1872.58 169.998 1909.87 146 1971.97 146C2006.36 146 2033.32 152.677 2052.84 166.03C2072.37 179.383 2082.13 197.333 2082.13 219.882C2082.13 247.092 2070.29 266.177 2046.61 277.137Z" fill="white"/>
<path d="M1520.11 150.724H1632.73L1676.19 319.274L1719.46 150.724H1831.7V427.736H1761.79V216.481L1707.56 427.736H1644.26L1590.21 216.481V427.736H1520.11V150.724Z" fill="white"/>
<path d="M1216.4 215.725C1239.32 169.242 1281.9 146 1344.13 146C1390.36 146 1425.89 158.345 1450.71 183.036C1475.65 207.726 1488.12 242.494 1488.12 287.34C1488.12 334.076 1475.84 369.978 1451.27 395.046C1426.71 419.989 1392.19 432.46 1347.72 432.46C1307.66 432.46 1276.86 424.586 1255.32 408.84C1233.78 392.968 1218.73 372.434 1210.16 347.24L1290.66 325.51C1298.47 353.979 1316.42 368.214 1344.51 368.214C1377.26 368.214 1395.97 350.515 1400.63 315.117H1317.11V263.721H1401.01C1395.59 228.071 1376.63 210.246 1344.13 210.246C1318.81 210.246 1301.93 221.835 1293.49 245.014L1216.4 215.725Z" fill="white"/>
<path d="M1209.35 427.736H1112.98L1079.72 356.121C1071.78 339.241 1065.61 328.722 1061.2 324.565C1056.79 320.282 1050.68 318.14 1042.87 318.14V427.736H957.465V150.724H1042.87V257.107C1050.31 256.729 1056.1 254.084 1060.26 249.171C1064.41 244.258 1070.9 230.149 1079.72 206.844C1086.14 189.586 1092.63 177.241 1099.18 169.809C1105.73 162.25 1116.38 156.834 1131.12 153.558C1145.86 150.283 1168.97 148.645 1200.46 148.645V207.222H1196.12C1181.51 207.222 1170.67 209.994 1163.62 215.536C1156.56 221.079 1150.77 230.086 1146.23 242.557C1141.7 254.903 1136.79 264.161 1131.49 270.334C1126.33 276.381 1119.21 281.231 1110.14 284.884C1122.49 288.915 1133.26 295.906 1142.45 305.858C1151.65 315.684 1161.41 331.052 1171.74 351.964L1209.35 427.736Z" fill="white"/>
<path d="M670 150.724H830.236C856.942 150.724 877.412 157.338 891.647 170.565C906.008 183.792 913.188 200.168 913.188 219.694C913.188 236.07 908.087 250.116 897.883 261.831C891.08 269.641 881.129 275.814 868.028 280.349C887.931 285.136 902.544 293.387 911.866 305.102C921.314 316.692 926.038 331.304 926.038 348.941C926.038 363.301 922.699 376.213 916.023 387.677C909.346 399.14 900.213 408.21 888.624 414.887C881.444 419.044 870.61 422.067 856.123 423.957C836.85 426.476 824.063 427.736 817.765 427.736H670V150.724ZM756.354 259.375H793.578C806.931 259.375 816.19 257.107 821.355 252.572C826.646 247.911 829.291 241.235 829.291 232.543C829.291 224.48 826.646 218.182 821.355 213.647C816.19 209.112 807.12 206.844 794.145 206.844H756.354V259.375ZM756.354 368.214H800.003C814.742 368.214 825.134 365.632 831.181 360.467C837.227 355.176 840.251 348.122 840.251 339.304C840.251 331.116 837.227 324.565 831.181 319.652C825.26 314.613 814.805 312.094 799.814 312.094H756.354V368.214Z" fill="white"/>
<path d="M438.5 420.5C432.313 540.801 328.821 586.134 311.44 701.572C310.496 707.837 309.653 711.324 309.251 717.647C308.895 723.241 309.251 732 309.251 732C309.251 732 313.703 720.708 316.912 713.628C346.123 649.183 411.803 636.559 450.499 570.673C494.945 494.997 516.427 442.167 511.982 354.518C509.564 306.834 501.577 279.975 484.5 235.388C472.083 202.969 455.842 184.963 444.5 156C426.103 109.025 420.92 79.1297 422.498 28.7059C422.849 17.4685 428.72 -3.62039 424.687 2.38419e-07C420.654 3.62039 397.162 46.5787 368.87 63.7271C366.15 65.3762 364.535 66.1486 361.784 67.7459C318.315 92.9804 286.593 105.329 262.19 149.271C245.131 179.989 242.7 201.483 240.274 236.536C234.35 322.113 327.23 358.597 327.999 448C328.335 486.96 327.307 507.909 312.534 546.56C307.995 558.435 298.307 575.84 298.307 575.84C298.307 575.84 305.147 568.998 309.251 564.358C343.982 525.092 352.117 499.792 361.5 452.5C378.542 366.604 282.831 315.517 305.42 235.388C317.96 190.909 368.87 149.271 368.87 149.271C368.87 149.271 373.633 177.929 379.5 195.5C389.735 226.158 408.666 241.319 418.499 268.5C439.72 327.158 441.574 360.708 438.5 420.5Z" fill="white"/>
<path d="M239.032 452.094C256.158 537.052 192.228 587.054 200.699 670.613C201.159 675.148 201.193 677.729 202.04 682.208C202.789 686.17 204.596 692.213 204.596 692.213C204.596 692.213 205.682 683.55 206.654 678.044C215.497 627.927 258.946 607.449 274.132 554.642C291.575 493.988 297.11 453.342 278.403 393.034C268.227 360.225 257.885 342.922 238.061 314.878C223.646 294.487 209.139 284.824 196.088 266.651C174.921 237.177 165.989 217.259 158.104 181.83C156.347 173.934 156.675 158.19 154.514 161.431C152.352 164.671 143.661 198.793 127.031 215.777C125.432 217.411 124.447 218.236 122.817 219.839C97.0684 245.158 77.1976 259.406 68.0469 294.375C61.6497 318.822 63.7876 334.236 68.3438 359.103C79.4668 419.809 150.588 428.727 167.049 490.91C174.223 518.008 177.24 532.794 173.847 562.364C172.804 571.449 169.164 585.304 169.164 585.304C169.164 585.304 172.704 579.318 174.733 575.354C191.902 541.807 193.056 522.725 191.159 488.091C187.715 425.185 112.022 406.591 113.465 346.719C114.266 313.484 142.27 275.407 142.27 275.407C142.27 275.407 150.689 294.537 157.901 305.743C170.483 325.294 186.356 332.496 198.039 349.695C223.253 386.811 230.52 409.867 239.032 452.094Z" fill="white"/>
<path d="M104.063 497.5C115.703 510.533 119.204 520.401 125.998 536.5C136.959 562.472 138.61 573.71 141.499 598.5C144.098 620.804 141.499 656 141.499 656C141.499 656 142.413 649.538 142.999 645.397C147.278 615.169 154 598.5 156 563.5C157.713 533.525 156.318 512.125 141.499 488C132.97 474.115 124.988 468.466 112.499 458C95.4291 443.695 80.2003 443.281 63.9989 428C50.9517 415.694 40.5476 408.881 36.1263 391.499C34.0999 383.533 35.0353 368.443 34.6892 370.5C34.3431 372.557 22.3561 400.391 14.4984 419.562C14.0449 420.668 13.7802 421.285 13.3374 422.395C4.13667 445.475 -2.70484 460.603 1.99897 485C4.12765 496.041 6.73888 502.062 11.9986 512C27.9895 542.214 62.2435 537.597 80.4981 566.5C90.445 582.249 93.8146 592.669 98.3228 610.742C99.5549 615.681 100.998 623.5 100.998 623.5C100.998 623.5 107.555 607.403 108.498 596.5C109.619 583.545 108.553 575.703 104.063 563.5C96.7433 543.608 48.4989 512 48.4989 512C48.4989 512 31.3886 503.202 27.4978 483C24.8642 469.325 34.6884 448.073 34.6884 448.073C34.6884 448.073 43.0305 454.23 48.4989 458C58.0417 464.579 63.976 467.39 73.4978 474C85.8665 482.586 94.033 486.27 104.063 497.5Z" fill="white"/>
</g>
</svg>
