<svg width="513" height="732" viewBox="0 0 513 732" fill="none" xmlns="http://www.w3.org/2000/svg">
<path d="M438.027 420.5C431.84 540.801 328.348 586.134 310.967 701.572C310.023 707.837 309.18 711.324 308.778 717.647C308.422 723.241 308.778 732 308.778 732C308.778 732 313.23 720.708 316.439 713.628C345.65 649.183 411.33 636.559 450.026 570.673C494.472 494.997 515.954 442.167 511.509 354.518C509.091 306.834 501.104 279.975 484.027 235.388C471.61 202.969 455.369 184.963 444.027 156C425.63 109.025 420.447 79.1297 422.025 28.7059C422.376 17.4685 428.247 -3.62039 424.214 2.38419e-07C420.181 3.62039 396.689 46.5787 368.397 63.7271C365.677 65.3762 364.062 66.1486 361.311 67.7459C317.842 92.9804 286.12 105.329 261.717 149.271C244.658 179.989 242.227 201.483 239.801 236.536C233.877 322.113 326.757 358.597 327.526 448C327.862 486.96 326.834 507.909 312.061 546.56C307.522 558.435 297.834 575.84 297.834 575.84C297.834 575.84 304.674 568.998 308.778 564.358C343.509 525.092 351.644 499.792 361.027 452.5C378.069 366.604 282.358 315.517 304.947 235.388C317.487 190.909 368.397 149.271 368.397 149.271C368.397 149.271 373.16 177.929 379.027 195.5C389.262 226.158 408.193 241.319 418.026 268.5C439.247 327.158 441.101 360.708 438.027 420.5Z" fill="#2F5597"/>
<path d="M238.56 452.094C255.686 537.052 191.756 587.054 200.227 670.613C200.687 675.148 200.721 677.729 201.568 682.208C202.317 686.17 204.124 692.213 204.124 692.213C204.124 692.213 205.21 683.55 206.182 678.044C215.025 627.927 258.474 607.449 273.66 554.642C291.103 493.988 296.638 453.342 277.931 393.034C267.755 360.225 257.413 342.922 237.589 314.878C223.174 294.487 208.667 284.824 195.616 266.651C174.449 237.177 165.517 217.259 157.632 181.83C155.875 173.934 156.203 158.19 154.042 161.431C151.88 164.671 143.189 198.793 126.559 215.777C124.96 217.411 123.975 218.236 122.345 219.839C96.5957 245.158 76.7249 259.406 67.5742 294.375C61.177 318.822 63.3149 334.236 67.8711 359.103C78.9941 419.809 150.116 428.727 166.577 490.91C173.751 518.008 176.768 532.794 173.375 562.364C172.332 571.449 168.692 585.304 168.692 585.304C168.692 585.304 172.232 579.318 174.261 575.354C191.43 541.807 192.584 522.725 190.687 488.091C187.243 425.185 111.55 406.591 112.993 346.719C113.794 313.484 141.798 275.407 141.798 275.407C141.798 275.407 150.217 294.537 157.429 305.743C170.011 325.294 185.884 332.496 197.567 349.695C222.781 386.811 230.048 409.867 238.56 452.094Z" fill="#2F5597"/>
<path d="M103.59 497.5C115.23 510.533 118.731 520.401 125.525 536.5C136.486 562.472 138.137 573.71 141.026 598.5C143.625 620.804 141.026 656 141.026 656C141.026 656 141.94 649.538 142.526 645.397C146.805 615.169 153.527 598.5 155.527 563.5C157.24 533.525 155.845 512.125 141.026 488C132.497 474.115 124.515 468.466 112.026 458C94.9565 443.695 79.7277 443.281 63.5263 428C50.4791 415.694 40.075 408.881 35.6537 391.499C33.6273 383.533 34.5627 368.443 34.2166 370.5C33.8705 372.557 21.8835 400.391 14.0258 419.562C13.5723 420.668 13.3076 421.285 12.8648 422.395C3.66402 445.475 -3.17749 460.603 1.52632 485C3.655 496.041 6.26623 502.062 11.526 512C27.5169 542.214 61.7709 537.597 80.0255 566.5C89.9724 582.249 93.342 592.669 97.8502 610.742C99.0823 615.681 100.525 623.5 100.525 623.5C100.525 623.5 107.082 607.403 108.025 596.5C109.146 583.545 108.08 575.703 103.59 563.5C96.2707 543.608 48.0263 512 48.0263 512C48.0263 512 30.916 503.202 27.0252 483C24.3916 469.325 34.2158 448.073 34.2158 448.073C34.2158 448.073 42.5579 454.23 48.0263 458C57.5691 464.579 63.5034 467.39 73.0252 474C85.3939 482.586 93.5604 486.27 103.59 497.5Z" fill="#2F5597"/>
</svg>
