<svg width="89" height="93" viewBox="0 0 89 93" fill="none" xmlns="http://www.w3.org/2000/svg">
<path d="M73 25.5V5.5C73 4.11929 71.8807 3 70.5 3H63C61.6193 3 60.5 4.11929 60.5 5.5V18M30.5962 4.48492L9.85825 11.3478C5.76434 12.7026 3 16.5291 3 20.8414V79.25C3 84.7728 7.47715 89.25 13 89.25H75.5C81.0228 89.25 85.5 84.7728 85.5 79.25V40.3628C85.5 36.9322 83.7414 33.741 80.8411 31.9087L39.0791 5.52444C36.5494 3.92624 33.437 3.54483 30.5962 4.48492ZM25.5 44.25H33C34.3807 44.25 35.5 43.1307 35.5 41.75V34.25C35.5 32.8693 34.3807 31.75 33 31.75H25.5C24.1193 31.75 23 32.8693 23 34.25V41.75C23 43.1307 24.1193 44.25 25.5 44.25ZM68 88V55.5C68 54.1193 66.8807 53 65.5 53H53C51.6193 53 50.5 54.1193 50.5 55.5V88H68Z" stroke="#2F5597" stroke-width="6" stroke-linecap="round" stroke-linejoin="round"/>
</svg>
