<svg width="1433" height="103" viewBox="0 0 1433 103" fill="none" xmlns="http://www.w3.org/2000/svg">
<path d="M232.5 55.1436H3.5" stroke="#2F5597" stroke-width="7" stroke-linecap="round" stroke-linejoin="round"/>
<path d="M1429.5 55.1435L1190.5 55.1436" stroke="#2F5597" stroke-width="7" stroke-linecap="round" stroke-linejoin="round"/>
<path d="M1114.65 22.5H1157.79V76.1462H1164.5V102.5H1155.86V84.8339H1107.12V102.5H1098.5V76.1462H1104.03C1111.41 66.0505 1114.96 48.1684 1114.65 22.5ZM1123.39 31.2458C1122.61 51.4746 1123.43 66.4423 1118 76.1462H1147.35V31.2458H1123.39Z" fill="#2F5597"/>
<path d="M1038.68 55C1038.68 43.3071 1041.92 34.6452 1048.41 29.0168C1053.82 24.3394 1060.43 22 1068.21 22C1076.87 22 1083.93 24.8541 1089.43 30.5624C1094.92 36.2314 1097.68 44.08 1097.68 54.108C1097.68 62.2342 1096.45 68.6368 1094 73.3142C1091.58 77.951 1088.04 81.5582 1083.39 84.1347C1078.76 86.7111 1073.7 88 1068.21 88C1059.39 88 1052.26 85.1656 1046.8 79.498C1041.39 73.829 1038.68 65.6634 1038.68 55ZM1049.66 55C1049.66 63.087 1051.41 69.1515 1054.93 73.195C1058.45 77.1978 1062.87 79.2006 1068.21 79.2006C1073.5 79.2006 1077.91 77.1781 1081.43 73.1346C1084.95 69.0926 1086.7 62.9285 1086.7 54.6438C1086.7 46.8345 1084.93 40.9285 1081.37 36.9243C1077.85 32.8808 1073.47 30.8598 1068.21 30.8598C1062.87 30.8598 1058.45 32.8612 1054.93 36.8654C1051.41 40.8682 1049.66 46.9144 1049.66 55Z" fill="#2F5597"/>
<path d="M981.68 24H1006.43C1012.51 24 1017.03 24.5054 1019.97 25.5175C1022.95 26.4911 1025.49 28.3006 1027.6 30.9473C1029.74 33.594 1030.81 36.7655 1030.81 40.4629C1030.81 43.4209 1030.18 46.0084 1028.91 48.2269C1027.67 50.4068 1025.8 52.2355 1023.3 53.7145C1026.28 54.6881 1028.76 56.5169 1030.7 59.2035C1032.68 61.8489 1033.68 65.0024 1033.68 68.6599C1033.29 74.5373 1031.13 78.897 1027.24 81.7379C1023.34 84.5788 1017.67 86 1010.25 86H981.68V24ZM992.412 50.0956H1003.86C1008.43 50.0956 1011.58 49.8614 1013.28 49.3946C1015 48.9278 1016.52 47.9941 1017.88 46.5923C1019.23 45.1532 1019.91 43.4402 1019.91 41.4558C1019.91 38.1866 1018.71 35.9089 1016.32 34.6255C1013.99 33.3407 1009.95 32.699 1004.23 32.699H992.412V50.0956ZM992.412 77.3588H1006.55C1012.62 77.3588 1016.8 76.6785 1019.07 75.3152C1021.33 73.9148 1022.53 71.5214 1022.65 68.1352C1022.65 66.1495 1021.99 64.3207 1020.68 62.6476C1019.38 60.9345 1017.66 59.8645 1015.55 59.4363C1013.44 58.9695 1010.06 58.7353 1005.41 58.7353H992.412V77.3588Z" fill="#2F5597"/>
<path d="M957.619 78.784C953.742 82.1529 949.989 84.5316 946.373 85.9187C942.798 87.3058 938.949 88 934.838 88C928.033 88 922.808 86.3156 919.151 82.9453C915.508 79.5372 913.68 75.1964 913.68 69.9243C913.68 66.8331 914.353 64.0183 915.714 61.4811C917.117 58.9047 918.918 56.843 921.131 55.2974C923.386 53.7518 925.916 52.582 928.72 51.7896C930.769 51.2342 933.876 50.6999 938.041 50.1838C946.51 49.1529 952.752 47.9242 956.753 46.4979C956.794 45.0308 956.808 44.0996 956.808 43.7027C956.808 39.3422 955.818 36.2707 953.838 34.4867C951.157 32.0687 947.17 30.8598 941.891 30.8598C936.955 30.8598 933.298 31.7518 930.934 33.5358C928.597 35.2792 926.864 38.3913 925.737 42.8709L915.481 41.4433C916.416 36.965 917.955 33.3577 920.086 30.6214C922.231 27.8472 925.311 25.7265 929.353 24.2595C933.395 22.7532 938.083 22 943.403 22C948.683 22 952.986 22.6353 956.285 23.9032C959.585 25.1711 962.018 26.777 963.572 28.7195C965.125 30.6213 966.211 33.0407 966.83 35.9734C967.188 37.7967 967.353 41.087 967.353 45.8429V60.1136C967.353 70.0631 967.573 76.3661 967.999 79.0211C968.466 81.6382 969.36 84.1557 970.68 86.5737H959.722C958.636 84.3535 957.935 81.7574 957.619 78.784ZM956.753 54.8808C952.945 56.4671 947.225 57.8149 939.609 58.9243C935.306 59.5583 932.254 60.2721 930.466 61.0646C928.679 61.8584 927.29 63.0266 926.328 64.5736C925.352 66.0799 924.871 67.7644 924.871 69.627C924.871 72.4811 925.916 74.8597 928.019 76.7616C930.15 78.6648 933.257 79.6158 937.34 79.6158C941.382 79.6158 944.971 78.7238 948.119 76.9412C951.267 75.1179 953.577 72.6396 955.062 69.5077C956.189 67.0898 956.753 63.5232 956.753 58.8051V54.8808Z" fill="#2F5597"/>
<path d="M877.511 58.0322V49.6494C881.979 49.6087 885.018 49.4306 886.628 49.1137C888.265 48.7967 889.819 47.8457 891.276 46.2595C892.72 44.6746 893.441 42.6928 893.441 40.3141C893.441 37.4207 892.484 35.1206 890.569 33.4166C888.681 31.6718 886.225 30.8009 883.214 30.8009C877.247 30.8009 873.07 34.3479 870.683 41.4433L860.622 39.7784C863.759 27.9271 871.322 22 883.325 22C890 22 895.217 23.8443 898.978 27.5301C902.78 31.216 904.681 35.6171 904.681 40.7307C904.681 45.8836 902.211 49.986 897.271 53.0379C900.407 54.742 902.766 56.9229 904.335 59.5793C905.903 62.195 906.68 65.3072 906.68 68.9131C906.68 74.5821 904.64 79.181 900.56 82.7083C896.48 86.2357 890.777 88 883.45 88C869.212 88 860.955 81.5989 858.68 68.7952L868.615 66.6536C869.517 70.6971 871.349 73.8289 874.097 76.0491C876.872 78.2679 880.05 79.3787 883.616 79.3787C887.197 79.3787 890.152 78.3675 892.511 76.3465C894.898 74.2848 896.092 71.669 896.092 68.4979C896.092 66.0393 895.356 63.8991 893.857 62.0758C892.373 60.2525 890.777 59.1221 889.098 58.6873C887.405 58.2104 884.352 57.9733 879.911 57.9733C879.564 57.9733 878.759 57.993 877.511 58.0322Z" fill="#2F5597"/>
<path d="M765.68 23.6151H776.4V71.196L806.116 23.6151H817.68V86H806.959V38.7115L777.229 86H765.68V23.6151ZM802.899 0H810.233C809.629 4.8954 807.802 8.65453 804.754 11.2789C801.733 13.9033 797.7 15.2141 792.656 15.2141C787.57 15.2141 783.509 13.9227 780.447 11.3371C777.426 8.7141 775.627 4.9342 775.023 0H782.357C782.905 2.66317 784.001 4.6612 785.631 5.9914C787.303 7.28418 789.523 7.9313 792.305 7.9313C795.523 7.9313 797.939 7.30354 799.569 6.05093C801.241 4.75815 802.351 2.74215 802.899 0Z" fill="#2F5597"/>
<path d="M741.066 24H751.68V86H741.066V24ZM681.68 24H692.294V48.2269H705.746C714.51 48.2269 721.256 49.9206 725.972 53.3069C730.73 56.6531 733.109 61.2857 733.109 67.2016C733.109 72.378 731.119 76.8135 727.155 80.511C723.218 84.1698 716.916 86 708.222 86H681.68V24ZM692.294 77.3588H703.45C710.169 77.3588 714.969 76.5423 717.834 74.9077C720.7 73.2731 722.147 70.7227 722.147 67.2594C722.147 64.5741 721.075 62.1807 718.961 60.0779C716.833 57.9765 712.131 56.9258 704.855 56.9258H692.294V77.3588Z" fill="#2F5597"/>
<path d="M616.68 24H627.158V49.8036H656.202V24H666.68V86H656.202V58.5026H627.158V86H616.68V24Z" fill="#2F5597"/>
<path d="M555.68 24H566.205V48.2269H579.545C588.236 48.2269 594.926 49.9206 599.603 53.3069C604.321 56.6531 606.68 61.2857 606.68 67.2016C606.68 72.378 604.707 76.8135 600.775 80.511C596.871 84.1698 590.622 86 582 86H555.68V24ZM566.205 77.3588H577.269C583.932 77.3588 588.691 76.5423 591.533 74.9077C594.375 73.2731 595.795 70.7227 595.795 67.2594C595.795 64.5741 594.747 62.1807 592.636 60.0779C590.539 57.9765 585.877 56.9258 578.662 56.9258H566.205V77.3588Z" fill="#2F5597"/>
<path d="M492.413 24H541.68V86.5885H531.128V32.7816H503.02V63.9569C503.02 71.226 502.783 76.0192 502.311 78.3365C501.838 80.6553 500.545 82.678 498.418 84.4073C496.305 86.1367 493.233 87 489.229 87C486.755 87 483.905 86.8428 480.68 86.5287V77.6887H485.337C487.533 77.6887 489.104 77.4733 490.049 77.041C490.995 76.5684 491.62 75.8427 491.94 74.8598C492.246 73.877 492.413 70.6755 492.413 65.254V24Z" fill="#2F5597"/>
<path d="M468.317 66.2384L479.33 67.6059C477.597 74.0674 474.369 79.0813 469.673 82.6494C464.977 86.216 458.968 88 451.658 88C442.462 88 435.152 85.1656 429.744 79.498C424.363 73.7897 421.68 65.8023 421.68 55.5358C421.68 44.9117 424.405 36.6676 429.856 30.8009C435.306 24.9341 442.378 22 451.071 22C459.485 22 466.361 24.8738 471.686 30.6214C477.024 36.3703 479.68 44.4559 479.68 54.8808C479.68 55.5162 479.666 56.4671 479.624 57.7349H432.707C433.098 64.6718 435.055 69.9846 438.563 73.6704C442.085 77.3563 446.473 79.2006 451.714 79.2006C455.627 79.2006 458.967 78.1697 461.735 76.108C464.502 74.0463 466.696 70.7574 468.317 66.2384ZM433.294 48.9355H468.429C467.954 43.6242 466.612 39.6396 464.404 36.9846C461.008 32.8612 456.605 30.8009 451.183 30.8009C446.291 30.8009 442.168 32.446 438.8 35.735C435.488 39.0253 433.643 43.425 433.294 48.9355Z" fill="#2F5597"/>
<path d="M367.68 24H418.68V32.699H398.464V86H387.882V32.699H367.68V24Z" fill="#2F5597"/>
<path d="M306.68 55C306.68 43.3071 309.925 34.6452 316.401 29.0168C321.828 24.3394 328.417 22 336.208 22C344.866 22 351.944 24.8541 357.441 30.5624C362.938 36.2314 365.68 44.08 365.68 54.108C365.68 62.2342 364.463 68.6368 362.001 73.3142C359.595 77.951 356.056 81.5582 351.398 84.1347C346.768 86.7111 341.705 88 336.208 88C327.395 88 320.262 85.1656 314.806 79.498C309.393 73.829 306.68 65.6634 306.68 55ZM317.646 55C317.646 63.087 319.408 69.1515 322.933 73.195C326.444 77.1978 330.878 79.2006 336.208 79.2006C341.509 79.2006 345.915 77.1781 349.44 73.1346C352.951 69.0926 354.713 62.9285 354.713 54.6438C354.713 46.8345 352.937 40.9285 349.37 36.9243C345.859 32.8808 341.467 30.8598 336.208 30.8598C330.878 30.8598 326.444 32.8612 322.933 36.8654C319.408 40.8682 317.646 46.9144 317.646 55Z" fill="#2F5597"/>
<path d="M258.68 24H269.322V50.7965C272.711 50.7965 275.082 50.1534 276.421 48.8699C277.802 47.5851 279.811 43.8491 282.447 37.6605C284.539 32.7568 286.227 29.5262 287.538 27.9701C288.835 26.4126 290.327 25.362 292.029 24.8166C293.717 24.2727 296.437 24 300.189 24H302.323V32.699L299.366 32.6397C296.562 32.6397 294.763 33.0488 293.982 33.8654C293.145 34.7219 291.889 37.2709 290.188 41.5136C288.584 45.5609 287.105 48.3632 285.753 49.9207C284.414 51.4767 282.349 52.8979 279.546 54.1827C284.121 55.3891 288.612 59.5919 293.033 66.7926C297.455 73.9933 304.68 86 304.68 86H292.977L281.624 66.7926C279.295 62.9395 277.258 60.4099 275.529 59.2035C273.799 57.9573 271.721 57.3349 269.322 57.3349V86H258.68V24Z" fill="#2F5597"/>
</svg>
