<svg width="1245" height="103" viewBox="0 0 1245 103" fill="none" xmlns="http://www.w3.org/2000/svg">
<path d="M143.5 55H3.5" stroke="#2F5597" stroke-width="7" stroke-linecap="round" stroke-linejoin="round"/>
<path d="M1241.5 55L1101.5 55" stroke="#2F5597" stroke-width="7" stroke-linecap="round" stroke-linejoin="round"/>
<path d="M1025.65 22.5H1068.79V76.1462H1075.5V102.5H1066.86V84.8339H1018.12V102.5H1009.5V76.1462H1015.03C1022.41 66.0505 1025.96 48.1684 1025.65 22.5ZM1034.39 31.2458C1033.61 51.4746 1034.43 66.4423 1029 76.1462H1058.35V31.2458H1034.39Z" fill="#2F5597"/>
<path d="M949.68 55C949.68 43.3071 952.924 34.6452 959.413 29.0168C964.825 24.3394 971.425 22 979.215 22C987.871 22 994.933 24.8541 1000.43 30.5624C1005.92 36.2314 1008.68 44.08 1008.68 54.108C1008.68 62.2342 1007.45 68.6368 1005 73.3142C1002.58 77.951 999.044 81.5582 994.388 84.1347C989.759 86.7111 984.697 88 979.215 88C970.391 88 963.258 85.1656 957.805 79.498C952.393 73.829 949.68 65.6634 949.68 55ZM960.657 55C960.657 63.087 962.405 69.1515 965.93 73.195C969.454 77.1978 973.873 79.2006 979.215 79.2006C984.501 79.2006 988.906 77.1781 992.43 73.1346C995.954 69.0926 997.702 62.9285 997.702 54.6438C997.702 46.8345 995.926 40.9285 992.374 36.9243C988.85 32.8808 984.473 30.8598 979.215 30.8598C973.873 30.8598 969.454 32.8612 965.93 36.8654C962.405 40.8682 960.657 46.9144 960.657 55Z" fill="#2F5597"/>
<path d="M892.68 24H917.435C923.511 24 928.026 24.5054 930.966 25.5175C933.948 26.4911 936.494 28.3006 938.603 30.9473C940.741 33.594 941.81 36.7655 941.81 40.4629C941.81 43.4209 941.177 46.0084 939.911 48.2269C938.674 50.4068 936.803 52.2355 934.299 53.7145C937.281 54.6881 939.757 56.5169 941.698 59.2035C943.681 61.8489 944.68 65.0024 944.68 68.6599C944.286 74.5373 942.134 78.897 938.238 81.7379C934.342 84.5788 928.673 86 921.247 86H892.68V24ZM903.412 50.0956H914.861C919.432 50.0956 922.583 49.8614 924.285 49.3946C926.001 48.9278 927.52 47.9941 928.884 46.5923C930.234 45.1532 930.91 43.4402 930.91 41.4558C930.91 38.1866 929.714 35.9089 927.323 34.6255C924.988 33.3407 920.951 32.699 915.227 32.699H903.412V50.0956ZM903.412 77.3588H917.548C923.624 77.3588 927.801 76.6785 930.066 75.3152C932.33 73.9148 933.526 71.5214 933.652 68.1352C933.652 66.1495 932.991 64.3207 931.683 62.6476C930.375 60.9345 928.659 59.8645 926.549 59.4363C924.439 58.9695 921.064 58.7353 916.408 58.7353H903.412V77.3588Z" fill="#2F5597"/>
<path d="M868.619 78.784C864.742 82.1529 860.989 84.5316 857.373 85.9187C853.798 87.3058 849.949 88 845.838 88C839.033 88 833.808 86.3156 830.151 82.9453C826.508 79.5372 824.68 75.1964 824.68 69.9243C824.68 66.8331 825.353 64.0183 826.714 61.4811C828.117 58.9047 829.918 56.843 832.131 55.2974C834.386 53.7518 836.916 52.582 839.72 51.7896C841.769 51.2342 844.876 50.6999 849.041 50.1838C857.51 49.1529 863.752 47.9242 867.753 46.4979C867.794 45.0308 867.808 44.0996 867.808 43.7027C867.808 39.3422 866.818 36.2707 864.838 34.4867C862.157 32.0687 858.17 30.8598 852.891 30.8598C847.955 30.8598 844.298 31.7518 841.934 33.5358C839.597 35.2792 837.864 38.3913 836.737 42.8709L826.481 41.4433C827.416 36.965 828.955 33.3577 831.086 30.6214C833.231 27.8472 836.311 25.7265 840.353 24.2595C844.395 22.7532 849.083 22 854.403 22C859.683 22 863.986 22.6353 867.285 23.9032C870.585 25.1711 873.018 26.777 874.572 28.7195C876.125 30.6213 877.211 33.0407 877.83 35.9734C878.188 37.7967 878.353 41.087 878.353 45.8429V60.1136C878.353 70.0631 878.573 76.3661 878.999 79.0211C879.466 81.6382 880.36 84.1557 881.68 86.5737H870.722C869.636 84.3535 868.935 81.7574 868.619 78.784ZM867.753 54.8808C863.945 56.4671 858.225 57.8149 850.609 58.9243C846.306 59.5583 843.254 60.2721 841.466 61.0646C839.679 61.8584 838.29 63.0266 837.328 64.5736C836.352 66.0799 835.871 67.7644 835.871 69.627C835.871 72.4811 836.916 74.8597 839.019 76.7616C841.15 78.6648 844.257 79.6158 848.34 79.6158C852.382 79.6158 855.971 78.7238 859.119 76.9412C862.267 75.1179 864.577 72.6396 866.062 69.5077C867.189 67.0898 867.753 63.5232 867.753 58.8051V54.8808Z" fill="#2F5597"/>
<path d="M788.511 58.0322V49.6494C792.979 49.6087 796.018 49.4306 797.628 49.1137C799.265 48.7967 800.819 47.8457 802.276 46.2595C803.72 44.6746 804.441 42.6928 804.441 40.3141C804.441 37.4207 803.484 35.1206 801.569 33.4166C799.681 31.6718 797.225 30.8009 794.214 30.8009C788.247 30.8009 784.07 34.3479 781.683 41.4433L771.622 39.7784C774.759 27.9271 782.322 22 794.325 22C801 22 806.217 23.8443 809.978 27.5301C813.78 31.216 815.681 35.6171 815.681 40.7307C815.681 45.8836 813.211 49.986 808.271 53.0379C811.407 54.742 813.766 56.9229 815.335 59.5793C816.903 62.195 817.68 65.3072 817.68 68.9131C817.68 74.5821 815.64 79.181 811.56 82.7083C807.48 86.2357 801.777 88 794.45 88C780.212 88 771.955 81.5989 769.68 68.7952L779.615 66.6536C780.517 70.6971 782.349 73.8289 785.097 76.0491C787.872 78.2679 791.05 79.3787 794.616 79.3787C798.197 79.3787 801.152 78.3675 803.511 76.3465C805.898 74.2848 807.092 71.669 807.092 68.4979C807.092 66.0393 806.356 63.8991 804.857 62.0758C803.373 60.2525 801.777 59.1221 800.098 58.6873C798.405 58.2104 795.352 57.9733 790.911 57.9733C790.564 57.9733 789.759 57.993 788.511 58.0322Z" fill="#2F5597"/>
<path d="M676.68 23.6151H687.4V71.196L717.116 23.6151H728.68V86H717.959V38.7115L688.229 86H676.68V23.6151ZM713.899 0H721.233C720.629 4.8954 718.802 8.65453 715.754 11.2789C712.733 13.9033 708.7 15.2141 703.656 15.2141C698.57 15.2141 694.509 13.9227 691.447 11.3371C688.426 8.7141 686.627 4.9342 686.023 0H693.357C693.905 2.66317 695.001 4.6612 696.631 5.9914C698.303 7.28418 700.523 7.9313 703.305 7.9313C706.523 7.9313 708.939 7.30354 710.569 6.05093C712.241 4.75815 713.351 2.74215 713.899 0Z" fill="#2F5597"/>
<path d="M652.066 24H662.68V86H652.066V24ZM592.68 24H603.294V48.2269H616.746C625.51 48.2269 632.256 49.9206 636.972 53.3069C641.73 56.6531 644.109 61.2857 644.109 67.2016C644.109 72.378 642.119 76.8135 638.155 80.511C634.218 84.1698 627.916 86 619.222 86H592.68V24ZM603.294 77.3588H614.45C621.169 77.3588 625.969 76.5423 628.834 74.9077C631.7 73.2731 633.147 70.7227 633.147 67.2594C633.147 64.5741 632.075 62.1807 629.961 60.0779C627.833 57.9765 623.131 56.9258 615.855 56.9258H603.294V77.3588Z" fill="#2F5597"/>
<path d="M527.68 24H538.158V49.8036H567.202V24H577.68V86H567.202V58.5026H538.158V86H527.68V24Z" fill="#2F5597"/>
<path d="M466.68 24H477.205V48.2269H490.545C499.236 48.2269 505.926 49.9206 510.603 53.3069C515.321 56.6531 517.68 61.2857 517.68 67.2016C517.68 72.378 515.707 76.8135 511.775 80.511C507.871 84.1698 501.622 86 493 86H466.68V24ZM477.205 77.3588H488.269C494.932 77.3588 499.691 76.5423 502.533 74.9077C505.375 73.2731 506.795 70.7227 506.795 67.2594C506.795 64.5741 505.747 62.1807 503.636 60.0779C501.539 57.9765 496.877 56.9258 489.662 56.9258H477.205V77.3588Z" fill="#2F5597"/>
<path d="M403.413 24H452.68V86.5885H442.128V32.7816H414.02V63.9569C414.02 71.226 413.783 76.0192 413.311 78.3365C412.838 80.6553 411.545 82.678 409.418 84.4073C407.305 86.1367 404.233 87 400.229 87C397.755 87 394.905 86.8428 391.68 86.5287V77.6887H396.337C398.533 77.6887 400.104 77.4733 401.049 77.041C401.995 76.5684 402.62 75.8427 402.94 74.8598C403.246 73.877 403.413 70.6755 403.413 65.254V24Z" fill="#2F5597"/>
<path d="M379.317 66.2384L390.33 67.6059C388.597 74.0674 385.369 79.0813 380.673 82.6494C375.977 86.216 369.968 88 362.658 88C353.462 88 346.152 85.1656 340.744 79.498C335.363 73.7897 332.68 65.8023 332.68 55.5358C332.68 44.9117 335.405 36.6676 340.856 30.8009C346.306 24.9341 353.378 22 362.071 22C370.485 22 377.361 24.8738 382.686 30.6214C388.024 36.3703 390.68 44.4559 390.68 54.8808C390.68 55.5162 390.666 56.4671 390.624 57.7349H343.707C344.098 64.6718 346.055 69.9846 349.563 73.6704C353.085 77.3563 357.473 79.2006 362.714 79.2006C366.627 79.2006 369.967 78.1697 372.735 76.108C375.502 74.0463 377.696 70.7574 379.317 66.2384ZM344.294 48.9355H379.429C378.954 43.6242 377.612 39.6396 375.404 36.9846C372.008 32.8612 367.605 30.8009 362.183 30.8009C357.291 30.8009 353.168 32.446 349.8 35.735C346.488 39.0253 344.643 43.425 344.294 48.9355Z" fill="#2F5597"/>
<path d="M278.68 24H329.68V32.699H309.464V86H298.882V32.699H278.68V24Z" fill="#2F5597"/>
<path d="M217.68 55C217.68 43.3071 220.925 34.6452 227.401 29.0168C232.828 24.3394 239.417 22 247.208 22C255.866 22 262.944 24.8541 268.441 30.5624C273.938 36.2314 276.68 44.08 276.68 54.108C276.68 62.2342 275.463 68.6368 273.001 73.3142C270.595 77.951 267.056 81.5582 262.398 84.1347C257.768 86.7111 252.705 88 247.208 88C238.395 88 231.262 85.1656 225.806 79.498C220.393 73.829 217.68 65.6634 217.68 55ZM228.646 55C228.646 63.087 230.408 69.1515 233.933 73.195C237.444 77.1978 241.878 79.2006 247.208 79.2006C252.509 79.2006 256.915 77.1781 260.44 73.1346C263.951 69.0926 265.713 62.9285 265.713 54.6438C265.713 46.8345 263.937 40.9285 260.37 36.9243C256.859 32.8808 252.467 30.8598 247.208 30.8598C241.878 30.8598 237.444 32.8612 233.933 36.8654C230.408 40.8682 228.646 46.9144 228.646 55Z" fill="#2F5597"/>
<path d="M169.68 24H180.322V50.7965C183.711 50.7965 186.082 50.1534 187.421 48.8699C188.802 47.5851 190.811 43.8491 193.447 37.6605C195.539 32.7568 197.227 29.5262 198.538 27.9701C199.835 26.4126 201.327 25.362 203.029 24.8166C204.717 24.2727 207.437 24 211.189 24H213.323V32.699L210.366 32.6397C207.562 32.6397 205.763 33.0488 204.982 33.8654C204.145 34.7219 202.889 37.2709 201.188 41.5136C199.584 45.5609 198.105 48.3632 196.753 49.9207C195.414 51.4767 193.349 52.8979 190.546 54.1827C195.121 55.3891 199.612 59.5919 204.033 66.7926C208.455 73.9933 215.68 86 215.68 86H203.977L192.624 66.7926C190.295 62.9395 188.258 60.4099 186.529 59.2035C184.799 57.9573 182.721 57.3349 180.322 57.3349V86H169.68V24Z" fill="#2F5597"/>
</svg>
