<svg width="140" height="25" viewBox="0 0 140 25" fill="none" xmlns="http://www.w3.org/2000/svg">
<path d="M17 11.885C17 13.2232 15.8807 14.3081 14.5 14.3081C13.1193 14.3081 12 13.2232 12 11.885C12 10.5468 13.1193 9.46191 14.5 9.46191C15.8807 9.46191 17 10.5468 17 11.885Z" fill="#ECEFF7"/>
<path fill-rule="evenodd" clip-rule="evenodd" d="M17 11.885C17 13.2232 15.8807 14.3081 14.5 14.3081C13.1193 14.3081 12 13.2232 12 11.885C12 10.5468 13.1193 9.46191 14.5 9.46191C15.8807 9.46191 17 10.5468 17 11.885Z" fill="#2E3860"/>
<path fill-rule="evenodd" clip-rule="evenodd" d="M12.5 0C5.59644 0 0 5.59644 0 12.5C0 19.4036 5.59644 25 12.5 25H127.5C134.404 25 140 19.4036 140 12.5C140 5.59644 134.404 0 127.5 0H12.5ZM14.5 20.1234C19.1944 20.1234 23 16.4349 23 11.8849C23 7.33496 19.1944 3.64648 14.5 3.64648C9.80558 3.64648 6 7.33496 6 11.8849C6 16.4349 9.80558 20.1234 14.5 20.1234ZM17 11.885C17 13.2232 15.8807 14.3081 14.5 14.3081C13.1193 14.3081 12 13.2232 12 11.885C12 10.5468 13.1193 9.46191 14.5 9.46191C15.8807 9.46191 17 10.5468 17 11.885Z" fill="#ECEFF7"/>
</svg>
