<svg width="27" height="35" viewBox="0 0 27 35" fill="none" xmlns="http://www.w3.org/2000/svg">
<path d="M25.5 29.5833V12.8997C25.5 11.8167 25.0698 10.7781 24.304 10.0124L16.4876 2.19598C15.7219 1.43021 14.6833 1 13.6003 1H5.08333C2.82817 1 1 2.82817 1 5.08333V29.5833C1 31.8385 2.82817 33.6667 5.08333 33.6667H21.4167C23.6718 33.6667 25.5 31.8385 25.5 29.5833Z" fill="#4472C4"/>
<path d="M25.5 13.25H17.3333C15.0782 13.25 13.25 11.4218 13.25 9.16667V1M25.5 12.8997V29.5833C25.5 31.8385 23.6718 33.6667 21.4167 33.6667H5.08333C2.82817 33.6667 1 31.8385 1 29.5833V5.08333C1 2.82817 2.82817 1 5.08333 1H13.6003C14.6833 1 15.7219 1.43021 16.4876 2.19598L24.304 10.0124C25.0698 10.7781 25.5 11.8167 25.5 12.8997Z" stroke="#2F5597" stroke-width="2" stroke-linecap="round" stroke-linejoin="round"/>
<path d="M5.46911 25.8335V19.288H7.8022C8.31143 19.288 8.73331 19.3807 9.06783 19.5661C9.40234 19.7515 9.6527 20.005 9.81889 20.3267C9.98509 20.6464 10.0682 21.0064 10.0682 21.407C10.0682 21.8097 9.98402 22.1719 9.8157 22.4937C9.6495 22.8133 9.39808 23.0668 9.06143 23.2543C8.72692 23.4397 8.30611 23.5324 7.79901 23.5324H6.1946V22.695H7.70952C8.03125 22.695 8.29226 22.6396 8.49254 22.5288C8.69283 22.4159 8.83984 22.2625 8.93359 22.0686C9.02734 21.8747 9.07422 21.6542 9.07422 21.407C9.07422 21.1598 9.02734 20.9404 8.93359 20.7486C8.83984 20.5569 8.69176 20.4066 8.48935 20.298C8.28906 20.1893 8.02486 20.135 7.69673 20.135H6.45668V25.8335H5.46911ZM13.0749 25.8335H10.9559V19.288H13.142C13.7834 19.288 14.3341 19.4191 14.7944 19.6812C15.2546 19.9411 15.6072 20.315 15.8522 20.803C16.0994 21.2888 16.223 21.8715 16.223 22.5512C16.223 23.233 16.0983 23.8189 15.8491 24.309C15.6019 24.7991 15.2439 25.1762 14.7752 25.4404C14.3064 25.7025 13.7397 25.8335 13.0749 25.8335ZM11.9435 24.9706H13.0206C13.5192 24.9706 13.9336 24.8768 14.2638 24.6893C14.5941 24.4997 14.8412 24.2259 15.0053 23.8679C15.1694 23.5079 15.2514 23.0689 15.2514 22.5512C15.2514 22.0377 15.1694 21.602 15.0053 21.244C14.8434 20.8861 14.6015 20.6144 14.2798 20.429C13.9581 20.2437 13.5586 20.151 13.0813 20.151H11.9435V24.9706ZM17.1811 25.8335V19.288H21.24V20.1382H18.1686V22.1325H20.9492V22.9794H18.1686V25.8335H17.1811Z" fill="#D9D9D9"/>
</svg>
