<svg width="24" height="24" viewBox="0 0 24 24" fill="none" xmlns="http://www.w3.org/2000/svg">
<path d="M20.6298 6.07579C20.4117 5.72267 20.0538 5.46407 19.6343 5.35861C19.2139 5.25314 18.767 5.30861 18.3907 5.51252C17.7655 5.85075 17.0118 5.85037 16.387 5.5115L15.7395 5.16037C15.1534 4.84251 14.7883 4.22926 14.7883 3.5625C14.7883 2.7125 14.0567 2 13.1519 2H10.848C9.94318 2 9.21153 2.7125 9.21153 3.5625C9.21153 4.2293 8.84658 4.84262 8.26055 5.16071L7.61383 5.51174C6.98898 5.8509 6.23503 5.85119 5.60992 5.51252C5.23369 5.30862 4.78587 5.25314 4.36553 5.35861C3.94601 5.46408 3.58811 5.72267 3.37001 6.07579L2.21969 7.94767C2.00244 8.30079 1.94333 8.72111 2.05571 9.11484C2.16808 9.50938 2.44276 9.8453 2.81899 10.0492C3.43455 10.3834 3.81796 11.0275 3.81817 11.7279L3.81833 12.2721C3.81853 12.9724 3.43532 13.6167 2.81982 13.9508C2.44359 14.1555 2.16807 14.4906 2.05571 14.8844C1.94334 15.2789 2.00244 15.6992 2.21969 16.0523L3.37167 17.9242C3.58892 18.2773 3.94684 18.5359 4.36636 18.6414C4.78672 18.7469 5.23369 18.6914 5.61075 18.4875C6.23594 18.1492 6.98967 18.1496 7.61451 18.4885L8.25967 18.8384C8.84621 19.1566 9.21151 19.7703 9.21151 20.4375C9.21151 21.2875 9.94316 22 10.8479 22H13.1512C14.0568 22 14.7876 21.2875 14.7876 20.4375C14.7882 19.7702 15.1537 19.1566 15.7404 18.8386L16.3862 18.4884C17.0111 18.1496 17.7649 18.1492 18.3901 18.4875C18.7671 18.6914 19.2141 18.7469 19.6336 18.6414C20.054 18.5359 20.4119 18.2773 20.6292 17.9242L21.7803 16.0523C21.9976 15.6992 22.0567 15.2789 21.9443 14.8852C21.8319 14.4906 21.5572 14.1547 21.181 13.9508C20.5655 13.6167 20.1822 12.9725 20.1822 12.2721V11.7279C20.1822 11.0275 20.5655 10.3833 21.181 10.0492C21.5572 9.84452 21.8319 9.50937 21.9443 9.11561C22.0567 8.72107 21.9976 8.30077 21.7803 7.94765L20.6298 6.07579Z" stroke="black" stroke-width="2" stroke-linecap="round" stroke-linejoin="round"/>
<path d="M15.3333 12C15.3333 13.8409 13.8409 15.3333 12 15.3333C10.1591 15.3333 8.66667 13.8409 8.66667 12C8.66667 10.1591 10.1591 8.66667 12 8.66667C13.8409 8.66667 15.3333 10.1591 15.3333 12Z" stroke="black" stroke-width="2" stroke-linecap="round" stroke-linejoin="round"/>
</svg>
