<svg width="24" height="24" viewBox="0 0 24 24" fill="none" xmlns="http://www.w3.org/2000/svg">
<path d="M22.1522 0.788268C21.8272 0.802608 21.5243 0.897281 21.2578 1.00504C21.008 1.1055 20.0539 1.51473 18.551 2.15923C17.0468 2.80429 15.0551 3.6594 12.9304 4.57306C8.68114 6.4004 3.90384 8.45733 1.45689 9.5101C1.36488 9.54967 1.04382 9.65223 0.703058 9.91826C0.362295 10.1843 0 10.7355 0 11.3498C0 11.8451 0.236045 12.3371 0.533153 12.6309C0.83026 12.9247 1.14464 13.0698 1.41393 13.1797C2.391 13.5783 5.42133 14.8184 5.99357 15.0525C6.19496 15.6695 7.2918 19.0247 7.54616 19.847C7.71384 20.3897 7.87345 20.7295 8.08127 20.9992C8.18517 21.1341 8.30596 21.2523 8.45232 21.3449C8.51083 21.3819 8.57498 21.4104 8.63981 21.4367L8.64371 21.4387C8.65865 21.4446 8.67153 21.4548 8.68668 21.4601C8.71526 21.4701 8.73438 21.4713 8.77261 21.4797C8.92492 21.5288 9.07869 21.5597 9.21592 21.5597C9.80103 21.5597 10.1592 21.2375 10.1592 21.2375L10.1807 21.2219L13.1902 18.6186L16.8402 22.0714C16.8916 22.1441 17.3709 22.8018 18.4279 22.8018C19.0556 22.8018 19.5535 22.4869 19.8731 22.1515C20.1928 21.8161 20.3919 21.4637 20.4766 21.0207V21.0188C20.5558 20.6001 23.9196 3.331 23.9196 3.331L23.9137 3.35443C24.0122 2.90496 24.038 2.48637 23.9294 2.0733C23.8207 1.66023 23.5344 1.26474 23.1794 1.05192C22.8245 0.839139 22.4772 0.773929 22.1522 0.788268ZM21.9647 2.87791C21.9599 2.9071 21.9683 2.89242 21.9608 2.92674L21.9589 2.93845L21.9569 2.95017C21.9569 2.95017 18.6347 19.9984 18.5119 20.6477C18.5209 20.5987 18.4798 20.6962 18.4377 20.7551C18.3782 20.7141 18.2561 20.6614 18.2561 20.6614L18.2366 20.6399L13.2507 15.9235L9.72564 18.9701L10.7744 14.7713C10.7744 14.7713 17.3299 7.98532 17.7249 7.59036C18.0429 7.27439 18.1096 7.16424 18.1096 7.05525C18.1096 6.90926 18.0335 6.80332 17.8635 6.80332C17.7106 6.80332 17.5048 6.95206 17.3948 7.02205C15.9619 7.93551 9.67091 11.602 6.85091 13.2422C6.40277 13.0588 3.28935 11.7843 2.23416 11.3537C2.24215 11.3502 2.23952 11.3514 2.24783 11.3478C4.69542 10.2948 9.47073 8.23785 13.7194 6.41078C15.8437 5.49724 17.837 4.64149 19.34 3.99695C20.8198 3.36233 21.8481 2.92558 21.9647 2.87791Z" fill="#D9D9D9"/>
</svg>
