<svg width="2130" height="732" viewBox="0 0 2130 732" fill="none" xmlns="http://www.w3.org/2000/svg">
<mask id="mask0_467_2" style="mask-type:luminance" maskUnits="userSpaceOnUse" x="0" y="0" width="2130" height="732">
<path d="M2129.5 0.5V731.5H0.5V0.5H2129.5Z" fill="white" stroke="white"/>
</mask>
<g mask="url(#mask0_467_2)">
<path d="M899 552H670" stroke="#2F5597" stroke-width="7" stroke-linecap="round" stroke-linejoin="round"/>
<path d="M2096 552L1857 552" stroke="#2F5597" stroke-width="7" stroke-linecap="round" stroke-linejoin="round"/>
<path d="M1822.97 521.356V575.003H1829.68V600.356H1822.04V582.69H1772.3V600.356H1764.68V575.003H1769.96L1770.11 574.798C1777.55 564.629 1781.09 546.77 1780.83 521.356H1822.97ZM1788.57 529.583C1787.79 549.788 1784.69 564.659 1779.31 574.259L1778.89 575.003H1813.53V529.103H1788.59L1788.57 529.583Z" fill="#2F5597" stroke="#2F5597"/>
<path d="M1734.71 519.356C1743.25 519.356 1750.18 522.165 1755.57 527.766L1755.57 527.767C1760.95 533.319 1763.68 541.03 1763.68 550.965C1763.68 559.049 1762.45 565.361 1760.06 569.938V569.939C1757.69 574.488 1754.22 578.024 1749.65 580.554L1749.64 580.555C1745.09 583.088 1740.11 584.356 1734.71 584.356C1726.28 584.356 1719.45 581.737 1714.17 576.521L1713.67 576.008C1708.37 570.461 1705.68 562.437 1705.68 551.856C1705.68 540.254 1708.9 531.754 1715.24 526.252C1720.55 521.66 1727.03 519.356 1734.71 519.356ZM1734.71 527.216C1729.4 527.216 1724.96 529.152 1721.4 533.012L1721.05 533.392C1717.42 537.523 1715.66 543.711 1715.66 551.856C1715.66 560.004 1717.42 566.208 1721.05 570.38L1721.05 570.382C1724.67 574.492 1729.23 576.557 1734.71 576.557C1740.15 576.557 1744.69 574.47 1748.31 570.319C1751.94 566.147 1753.7 559.841 1753.7 551.5C1753.7 543.87 1752.02 537.958 1748.59 533.842L1748.25 533.449C1744.63 529.302 1740.12 527.216 1734.71 527.216Z" fill="#2F5597" stroke="#2F5597"/>
<path d="M1672.93 521.356C1679 521.356 1683.44 521.863 1686.3 522.847L1686.31 522.85C1689.19 523.79 1691.66 525.539 1693.71 528.115L1693.71 528.118C1695.77 530.668 1696.81 533.726 1696.81 537.319C1696.81 540.204 1696.19 542.704 1694.98 544.836L1694.98 544.837C1693.79 546.929 1691.99 548.699 1689.54 550.141L1688.59 550.703L1689.64 551.046C1692.52 551.985 1694.91 553.748 1696.79 556.353L1696.8 556.36C1698.71 558.906 1699.68 561.946 1699.68 565.499C1699.29 571.256 1697.19 575.458 1693.44 578.19C1689.67 580.943 1684.12 582.356 1676.75 582.356H1648.68V521.356H1672.93ZM1658.41 574.715H1673.05C1676.1 574.715 1678.69 574.544 1680.82 574.198C1682.93 573.853 1684.61 573.328 1685.82 572.6L1685.83 572.597C1688.27 571.085 1689.52 568.512 1689.65 565.011V564.991C1689.65 562.886 1688.95 560.953 1687.58 559.2H1687.58C1686.2 557.39 1684.38 556.255 1682.15 555.803H1682.15C1679.98 555.325 1676.56 555.092 1671.91 555.092H1658.41V574.715ZM1658.41 547.452H1670.36C1674.93 547.452 1678.14 547.22 1679.92 546.733L1679.92 546.732C1681.62 546.27 1683.12 545.377 1684.47 544.065L1684.75 543.791C1686.19 542.259 1686.91 540.423 1686.91 538.312C1686.91 534.904 1685.65 532.431 1683.06 531.041C1680.6 529.692 1676.46 529.056 1670.73 529.056H1658.41V547.452Z" fill="#2F5597" stroke="#2F5597"/>
<path d="M1609.9 519.356C1615.15 519.356 1619.38 519.989 1622.61 521.227C1625.86 522.475 1628.2 524.039 1629.68 525.889L1629.68 525.893C1631.18 527.72 1632.24 530.061 1632.84 532.933C1633.19 534.703 1633.35 537.945 1633.35 542.699V556.97C1633.35 566.907 1633.57 573.254 1634 575.957L1634.01 575.966C1634.44 578.372 1635.22 580.693 1636.35 582.93H1626.54C1625.56 580.833 1624.91 578.389 1624.62 575.588L1624.51 574.634L1623.79 575.263C1619.94 578.605 1616.24 580.948 1612.69 582.309H1612.69C1609.18 583.672 1605.39 584.356 1601.34 584.356C1594.61 584.356 1589.53 582.692 1585.99 579.434C1582.46 576.126 1580.68 571.921 1580.68 566.78C1580.68 563.765 1581.34 561.032 1582.65 558.573C1584.02 556.061 1585.77 554.063 1587.91 552.566C1590.12 551.054 1592.6 549.907 1595.35 549.128L1595.35 549.129C1597.36 548.583 1600.44 548.052 1604.6 547.536L1604.6 547.535C1613.08 546.503 1619.37 545.271 1623.42 543.825L1623.74 543.71L1623.75 543.368C1623.79 541.9 1623.81 540.964 1623.81 540.56C1623.81 536.145 1622.81 532.896 1620.67 530.972C1617.87 528.44 1613.74 527.216 1608.39 527.216C1603.57 527.216 1599.86 528.057 1597.37 529.819L1597.13 529.991C1594.74 531.774 1593.01 534.868 1591.87 539.171L1582.58 537.879C1583.52 533.697 1584.99 530.34 1586.98 527.785L1586.98 527.783C1589.06 525.099 1592.05 523.028 1596.02 521.586L1596.03 521.584C1600 520.103 1604.63 519.356 1609.9 519.356ZM1623.06 551.275C1619.31 552.837 1613.64 554.179 1606.04 555.286H1606.04C1601.73 555.921 1598.62 556.642 1596.76 557.464C1594.9 558.293 1593.43 559.522 1592.41 561.158C1591.38 562.75 1590.87 564.53 1590.87 566.483C1590.87 569.477 1591.97 571.991 1594.18 573.989L1594.19 573.991C1596.44 576.005 1599.69 576.973 1603.84 576.973C1607.96 576.973 1611.63 576.062 1614.87 574.232L1614.87 574.23C1618.1 572.359 1620.48 569.806 1622.01 566.578L1622.01 566.575C1623.19 564.058 1623.75 560.404 1623.75 555.661V550.987L1623.06 551.275Z" fill="#2F5597" stroke="#2F5597"/>
<path d="M1549.83 519.356C1556.41 519.356 1561.48 521.173 1565.13 524.744L1565.13 524.745C1568.84 528.34 1570.68 532.614 1570.68 537.587C1570.68 542.542 1568.32 546.494 1563.51 549.469L1562.78 549.922L1563.53 550.334C1566.6 552.002 1568.89 554.123 1570.4 556.689L1570.41 556.692C1571.92 559.217 1572.68 562.237 1572.68 565.77C1572.68 571.302 1570.7 575.76 1566.73 579.187C1562.77 582.611 1557.2 584.356 1549.95 584.356C1542.9 584.356 1537.4 582.772 1533.39 579.66C1529.48 576.631 1526.93 572.11 1525.76 566.038L1534.74 564.102C1535.7 568.006 1537.54 571.083 1540.28 573.295L1540.28 573.296C1543.15 575.586 1546.44 576.735 1550.12 576.735C1553.8 576.735 1556.87 575.693 1559.34 573.583L1559.34 573.581C1561.84 571.424 1563.09 568.67 1563.09 565.354C1563.09 562.948 1562.41 560.816 1561.03 558.979L1560.74 558.615C1559.21 556.738 1557.53 555.529 1555.72 555.06H1555.72C1553.95 554.564 1550.84 554.33 1546.41 554.33C1546.11 554.33 1545.47 554.344 1544.51 554.373V546.999C1548.71 546.95 1551.62 546.775 1553.22 546.46C1554.99 546.117 1556.64 545.096 1558.14 543.454L1558.15 543.452C1559.68 541.765 1560.44 539.659 1560.44 537.171C1560.44 534.155 1559.44 531.711 1557.4 529.899C1555.41 528.059 1552.82 527.157 1549.71 527.157C1546.62 527.157 1543.97 528.079 1541.78 529.937C1539.69 531.717 1538.05 534.331 1536.85 537.737L1527.75 536.231C1529.31 530.65 1531.89 526.487 1535.46 523.695C1539.13 520.817 1543.91 519.356 1549.83 519.356Z" fill="#2F5597" stroke="#2F5597"/>
<path d="M1442.4 520.972V569.797L1443.32 568.317L1472.89 520.972H1483.68V582.356H1473.96V533.833L1473.04 535.302L1443.45 582.356H1432.68V520.972H1442.4ZM1448.46 497.356C1449.05 499.906 1450.16 501.883 1451.81 503.234V503.235L1451.83 503.243C1453.61 504.622 1455.95 505.288 1458.8 505.288C1462.07 505.288 1464.62 504.652 1466.37 503.304L1466.38 503.303C1468.08 501.982 1469.21 499.98 1469.8 497.356H1476.16C1475.5 501.881 1473.75 505.33 1470.93 507.757L1470.93 507.758C1468.02 510.284 1464.11 511.57 1459.16 511.57C1454.31 511.57 1450.47 510.38 1447.55 508.041L1447.27 507.812C1444.48 505.387 1442.75 501.919 1442.09 497.356H1448.46Z" fill="#2F5597" stroke="#2F5597"/>
<path d="M1358.29 521.356V545.583H1372.25C1380.95 545.583 1387.58 547.268 1392.18 550.569L1392.18 550.572C1396.81 553.823 1399.11 558.301 1399.11 564.058C1399.11 569.087 1397.18 573.393 1393.31 577.001C1389.51 580.534 1383.36 582.356 1374.72 582.356H1348.68V521.356H1358.29ZM1417.68 521.356V582.356H1408.07V521.356H1417.68ZM1358.29 574.715H1369.95C1376.68 574.715 1381.6 573.901 1384.58 572.198C1387.61 570.47 1389.15 567.749 1389.15 564.116C1389.15 561.281 1388.01 558.764 1385.81 556.58L1385.81 556.578L1385.59 556.367C1384.42 555.332 1382.69 554.583 1380.45 554.082C1378.05 553.546 1375.01 553.282 1371.36 553.282H1358.29V574.715Z" fill="#2F5597" stroke="#2F5597"/>
<path d="M1293.16 521.356V547.16H1323.2V521.356H1332.68V582.356H1323.2V554.859H1293.16V582.356H1283.68V521.356H1293.16Z" fill="#2F5597" stroke="#2F5597"/>
<path d="M1232.21 521.356V545.583H1246.04C1254.68 545.583 1261.25 547.268 1265.81 550.568L1265.81 550.571C1270.4 553.821 1272.68 558.3 1272.68 564.058C1272.68 569.089 1270.77 573.395 1266.93 577.003C1263.16 580.535 1257.07 582.356 1248.5 582.356H1222.68V521.356H1232.21ZM1232.21 574.715H1243.77C1250.45 574.715 1255.32 573.901 1258.28 572.197C1261.29 570.467 1262.8 567.746 1262.8 564.116C1262.8 561.461 1261.82 559.082 1259.89 556.994L1259.49 556.58C1258.34 555.434 1256.55 554.617 1254.18 554.082C1251.8 553.546 1248.79 553.282 1245.16 553.282H1232.21V574.715Z" fill="#2F5597" stroke="#2F5597"/>
<path d="M1207.68 521.356V582.945H1198.13V529.138H1169.02V560.813C1169.02 568.092 1168.78 572.833 1168.32 575.093C1167.87 577.281 1166.65 579.208 1164.6 580.876L1164.6 580.877C1162.61 582.506 1159.67 583.356 1155.73 583.356C1153.39 583.356 1150.71 583.213 1147.68 582.929V575.045H1151.84C1154.04 575.045 1155.71 574.833 1156.76 574.353L1156.77 574.349L1156.77 574.345C1157.84 573.813 1158.55 572.983 1158.92 571.871L1158.92 571.865C1159.09 571.303 1159.21 570.192 1159.29 568.603C1159.37 566.99 1159.41 564.825 1159.41 562.11V521.356H1207.68Z" fill="#2F5597" stroke="#2F5597"/>
<path d="M1117.57 519.356C1125.86 519.356 1132.6 522.18 1137.82 527.817L1137.82 527.818C1143.05 533.447 1145.68 541.396 1145.68 551.737C1145.68 552.283 1145.67 553.068 1145.64 554.092H1098.68L1098.71 554.619C1099.1 561.631 1101.09 567.073 1104.7 570.871V570.872H1104.7C1108.32 574.66 1112.84 576.557 1118.21 576.557C1122.22 576.557 1125.67 575.5 1128.53 573.365C1131.33 571.285 1133.52 568.025 1135.15 563.639L1145.19 564.887C1143.45 570.987 1140.33 575.717 1135.87 579.107C1131.28 582.593 1125.38 584.356 1118.16 584.356C1109.07 584.356 1101.9 581.56 1096.61 576.009H1096.6C1091.34 570.42 1088.68 562.57 1088.68 552.393C1088.68 541.853 1091.38 533.745 1096.72 527.998C1102.07 522.242 1109 519.356 1117.57 519.356ZM1117.68 527.157C1112.67 527.157 1108.42 528.85 1104.95 532.233L1104.95 532.236C1101.53 535.627 1099.65 540.151 1099.29 545.761L1099.26 546.292H1135.48L1135.43 545.747C1134.96 540.553 1133.67 536.543 1131.5 533.784L1131.29 533.521C1127.8 529.282 1123.25 527.157 1117.68 527.157Z" fill="#2F5597" stroke="#2F5597"/>
<path d="M1084.68 521.356V529.056H1064.46V582.356H1054.88V529.056H1034.68V521.356H1084.68Z" fill="#2F5597" stroke="#2F5597"/>
<path d="M1002.71 519.356C1011.24 519.357 1018.19 522.165 1023.58 527.766L1023.58 527.767C1028.97 533.319 1031.68 541.03 1031.68 550.965C1031.68 559.05 1030.47 565.361 1028.06 569.938L1028.06 569.94C1025.7 574.488 1022.23 578.024 1017.66 580.554L1017.66 580.555C1013.1 583.088 1008.12 584.356 1002.71 584.356C994.285 584.356 987.455 581.737 982.173 576.521L981.667 576.008C976.371 570.461 973.68 562.437 973.68 551.856C973.68 540.254 976.897 531.753 983.229 526.25C988.557 521.659 995.027 519.356 1002.71 519.356ZM1002.71 527.216C997.236 527.216 992.665 529.279 989.059 533.392C985.421 537.523 983.646 543.71 983.646 551.856C983.646 560.005 985.421 566.209 989.057 570.38L989.058 570.381C992.664 574.492 997.235 576.557 1002.71 576.557C1008.16 576.557 1012.7 574.47 1016.32 570.319H1016.32C1019.94 566.148 1021.71 559.843 1021.71 551.5C1021.71 543.627 1019.92 537.583 1016.25 533.453H1016.25C1012.64 529.302 1008.11 527.216 1002.71 527.216Z" fill="#2F5597" stroke="#2F5597"/>
<path d="M935.322 521.356V548.153H935.822C939.24 548.153 941.776 547.51 943.261 546.092L943.262 546.093C944.018 545.389 944.897 544.069 945.903 542.197C946.918 540.31 948.086 537.814 949.407 534.713C951.502 529.803 953.164 526.639 954.42 525.148L954.422 525.146C955.667 523.651 957.083 522.662 958.682 522.149H958.683C960.291 521.631 962.944 521.356 966.688 521.356H968.322V529.045L965.876 528.996H965.865C964.444 528.996 963.252 529.1 962.305 529.315C961.368 529.529 960.613 529.863 960.124 530.372C959.645 530.863 959.092 531.781 958.461 533.055C957.822 534.346 957.077 536.057 956.224 538.184L956.223 538.186C954.622 542.225 953.169 544.96 951.875 546.449L951.873 546.451C950.598 547.932 948.604 549.317 945.837 550.585L944.567 551.167L945.918 551.522C950.301 552.678 954.704 556.739 959.105 563.907V563.908L970.292 582.356H959.764L948.555 563.395L948.552 563.391L948.117 562.681C945.959 559.208 944.022 556.841 942.314 555.649C940.49 554.337 938.309 553.691 935.822 553.691H935.322V582.356H925.68V521.356H935.322Z" fill="#2F5597" stroke="#2F5597"/>
<path d="M1971.97 146.5C2005.77 146.5 2032.31 152.96 2051.64 165.825L2052.56 166.442C2071.96 179.708 2081.63 197.507 2081.63 219.882C2081.63 233.413 2078.69 244.892 2072.83 254.34C2066.96 263.787 2058.17 271.238 2046.4 276.684L2045.15 277.262L2046.48 277.62C2063.04 282.072 2075.4 289.489 2083.63 299.84C2091.86 310.188 2095.99 323.517 2095.99 339.87C2095.99 366.805 2085.61 388.898 2064.81 406.188C2044.14 423.346 2014.86 431.96 1976.88 431.96C1944.45 431.96 1918.21 425.156 1898.13 411.591C1878.2 398.129 1864.29 377.977 1856.41 351.093L1936.25 345.124C1938.57 354.642 1942.95 361.844 1949.42 366.678C1955.99 371.579 1964.65 374.005 1975.37 374.005C1987.29 374.005 1996.38 371.027 2002.55 364.985C2008.85 358.948 2011.96 350.554 2011.96 339.87C2011.96 329.845 2008.3 321.654 2000.98 315.336L2000.26 314.73C1992.45 308.21 1981.81 304.98 1968.38 304.98H1945.64V256.473H1963.47C1974.52 256.473 1983.21 253.616 1989.51 247.839L1989.51 247.838C1995.92 241.931 1999.11 233.786 1999.11 223.473C1999.11 215.867 1996.72 210.083 1991.89 206.218C1987.07 202.369 1979.9 200.487 1970.46 200.487C1960.69 200.487 1952.9 202.66 1947.15 207.062C1941.49 211.39 1937.87 217.83 1936.24 226.323L1860.74 217.562C1867 193.95 1879.32 176.249 1897.7 164.419C1916.24 152.489 1940.98 146.5 1971.97 146.5Z" fill="#2F5597" stroke="#2F5597"/>
<path d="M1632.34 151.224L1675.71 319.399L1676.67 319.398L1719.85 151.224H1831.2V427.236H1762.29V216.481L1761.3 216.357L1707.17 427.236H1644.65L1590.69 216.357L1589.71 216.481V427.236H1520.61V151.224H1632.34Z" fill="#2F5597" stroke="#2F5597"/>
<path d="M1344.13 146.5C1390.27 146.5 1425.66 158.82 1450.36 183.391L1450.36 183.392C1475.18 207.963 1487.62 242.589 1487.62 287.34C1487.62 333.989 1475.36 369.749 1450.91 394.695C1426.47 419.519 1392.09 431.96 1347.72 431.96C1308.34 431.96 1278 424.34 1256.63 409.165L1255.62 408.437C1234.3 392.731 1219.37 372.449 1210.81 347.582L1290.31 326.121C1294.25 340.19 1300.69 350.81 1309.67 357.93C1318.75 365.132 1330.38 368.714 1344.51 368.714C1360.98 368.714 1373.98 364.262 1383.45 355.303C1392.91 346.349 1398.79 332.952 1401.13 315.183L1401.2 314.617H1317.61V264.221H1401.59L1401.5 263.646C1398.78 245.752 1392.66 232.264 1383.07 223.25C1373.47 214.23 1360.47 209.746 1344.13 209.746C1331.39 209.746 1320.74 212.661 1312.2 218.525C1303.77 224.31 1297.45 232.937 1293.2 244.367L1217.09 215.453C1228.5 192.544 1244.72 175.356 1265.76 163.87C1286.96 152.299 1313.08 146.5 1344.13 146.5Z" fill="#2F5597" stroke="#2F5597"/>
<path d="M1199.96 206.722H1196.12C1181.92 206.722 1171.18 209.329 1164 214.623L1163.31 215.143C1156.37 220.589 1150.68 229.302 1146.19 241.222L1145.76 242.386C1141.24 254.706 1136.35 263.9 1131.11 270.008L1131.11 270.009C1126.01 275.982 1118.97 280.791 1109.95 284.42L1108.68 284.933L1109.98 285.359C1122.25 289.362 1132.95 296.305 1142.08 306.197L1142.08 306.2C1151.24 315.973 1160.97 331.29 1171.29 352.185V352.186L1208.54 427.236H1113.3L1080.17 355.911L1080.17 355.908C1076.2 347.461 1072.66 340.596 1069.57 335.319C1066.67 330.38 1064.14 326.801 1061.97 324.619L1061.54 324.202C1057.02 319.809 1050.77 317.64 1042.87 317.64H1042.37V427.236H957.965V151.224H1042.37V257.633L1042.9 257.606C1050.21 257.234 1056.01 254.696 1060.24 249.959L1060.64 249.494C1062.77 246.98 1065.45 242.168 1068.69 235.114C1071.94 228.044 1075.78 218.679 1080.19 207.021L1080.19 207.018C1086.6 189.777 1093.07 177.501 1099.55 170.139L1099.56 170.136C1106.01 162.69 1116.54 157.31 1131.23 154.046C1145.83 150.801 1168.73 149.162 1199.96 149.145V206.722Z" fill="#2F5597" stroke="#2F5597"/>
<path d="M830.236 151.224C856.864 151.224 877.194 157.818 891.307 170.931L891.309 170.933C905.567 184.065 912.688 200.308 912.688 219.694C912.688 235.956 907.626 249.884 897.506 261.502C890.776 269.228 880.91 275.361 867.864 279.876L866.25 280.436L867.911 280.835C887.745 285.606 902.244 293.813 911.475 305.414L911.479 305.418C920.841 316.904 925.538 331.398 925.538 348.941C925.538 363.22 922.219 376.044 915.591 387.425C908.958 398.812 899.888 407.82 888.374 414.454L888.373 414.455C881.278 418.562 870.522 421.574 856.059 423.461C836.779 425.981 824.024 427.236 817.765 427.236H670.5V151.224H830.236ZM755.854 368.714H800.003C814.771 368.714 825.318 366.133 831.506 360.847L831.511 360.843C837.676 355.447 840.751 348.25 840.751 339.304C840.751 330.978 837.668 324.284 831.504 319.271H831.505C825.441 314.11 814.828 311.594 799.814 311.594H755.854V368.714ZM755.854 259.875H793.578C806.953 259.875 816.374 257.61 821.685 252.948H821.686C827.109 248.17 829.791 241.343 829.791 232.543C829.791 224.36 827.099 217.912 821.68 213.267C816.371 208.609 807.143 206.344 794.146 206.344H755.854V259.875Z" fill="#2F5597" stroke="#2F5597"/>
<path d="M425.415 0.0991211C425.443 0.148939 425.485 0.251094 425.521 0.437012C425.567 0.671647 425.593 0.986136 425.596 1.38135C425.607 2.97514 425.247 5.57995 424.742 8.70166C423.74 14.8939 422.175 23.0286 421.998 28.6899C420.418 79.1815 425.613 109.144 444.034 156.182C449.721 170.705 456.637 182.479 463.664 194.648C470.693 206.82 477.84 219.397 484.033 235.567C501.099 280.125 509.068 306.93 511.482 354.543C515.921 442.058 494.487 494.789 450.067 570.419C430.775 603.267 404.76 622.841 379.841 642.296C354.934 661.742 331.118 681.075 316.456 713.421C314.847 716.97 312.93 721.571 311.415 725.28C310.731 726.955 310.129 728.449 309.674 729.584C309.653 728.818 309.632 727.907 309.617 726.914C309.573 724.027 309.573 720.455 309.75 717.679V717.678C310.15 711.384 310.985 707.946 311.935 701.647V701.646C320.605 644.064 350.744 603.968 379.576 563.148C408.398 522.343 435.898 480.831 438.999 420.526C442.075 360.69 440.219 327.068 418.969 268.33C414.029 254.674 406.802 244.039 399.567 233.03C392.329 222.013 385.069 210.604 379.974 195.341C377.05 186.586 374.398 175.053 372.475 165.696C371.513 161.02 370.735 156.892 370.197 153.934C369.928 152.455 369.72 151.268 369.578 150.452C369.507 150.043 369.454 149.727 369.418 149.513C369.4 149.407 369.386 149.325 369.377 149.271C369.372 149.244 369.369 149.223 369.366 149.209C369.365 149.203 369.365 149.197 369.364 149.194C369.364 149.192 369.363 149.191 369.363 149.19V149.189L369.222 148.337L368.553 148.884C368.552 148.885 368.552 148.886 368.551 148.886C368.549 148.888 368.546 148.889 368.543 148.892C368.537 148.897 368.527 148.905 368.515 148.916C368.49 148.936 368.453 148.966 368.404 149.006C368.307 149.087 368.162 149.208 367.974 149.367C367.596 149.684 367.041 150.155 366.331 150.769C364.911 151.998 362.869 153.802 360.38 156.105C355.403 160.711 348.635 167.317 341.475 175.316C327.165 191.302 311.24 212.901 304.938 235.252C293.58 275.546 311.986 308.531 330.944 342.028C349.784 375.316 369.184 409.131 361.203 451.403L361.009 452.403C356.318 476.043 351.947 494.145 344.423 511.237C336.901 528.322 326.218 544.421 308.876 564.027C306.832 566.338 304.103 569.201 301.881 571.491C301.37 572.017 300.885 572.512 300.443 572.963C301.414 571.16 302.723 568.693 304.163 565.881C307.154 560.043 310.721 552.703 313.001 546.739C327.805 508.006 328.835 486.987 328.499 447.996C328.113 403.111 304.593 371.514 282.03 340.539C259.444 309.531 237.825 279.155 240.772 236.571C243.197 201.538 245.623 180.134 262.627 149.514C286.946 105.723 318.508 93.4467 362.035 68.1782C364.401 66.8047 365.983 66.0122 368.157 64.7349L369.129 64.1548C383.362 55.5276 396.356 40.4332 406.276 27.0884C411.241 20.4098 415.446 14.1562 418.658 9.35107C420.266 6.94635 421.621 4.90936 422.701 3.35986C423.795 1.79116 424.568 0.778557 425.021 0.372559C425.218 0.19555 425.347 0.124307 425.415 0.0991211Z" fill="#2F5597" stroke="#2F5597"/>
<path d="M155.046 161.647C155.114 161.792 155.186 161.997 155.257 162.268C155.545 163.364 155.758 165.23 155.963 167.499C156.368 171.984 156.728 177.949 157.616 181.939C165.516 217.434 174.476 237.414 195.683 266.943C202.234 276.065 209.15 283.05 216.205 290.282C223.264 297.516 230.47 305.006 237.653 315.167C257.46 343.186 267.771 360.441 277.926 393.182C296.593 453.362 291.081 493.9 273.652 554.503C266.09 580.801 251.493 599.051 237.619 617.046C223.755 635.03 210.607 652.765 206.162 677.957C205.674 680.719 205.159 684.269 204.766 687.125C204.631 688.103 204.512 689.002 204.412 689.759C204.309 689.39 204.197 688.988 204.082 688.565C203.537 686.561 202.902 684.075 202.531 682.115C201.69 677.664 201.661 675.131 201.197 670.562C196.976 628.921 210.788 595.643 223.579 562.056C236.364 528.486 248.116 494.626 239.522 451.996C231.002 409.725 223.715 386.6 198.453 349.414C192.573 340.757 185.637 334.618 178.645 328.232C171.646 321.841 164.575 315.189 158.322 305.472C154.733 299.896 150.836 292.334 147.831 286.154C146.33 283.066 145.054 280.329 144.153 278.363C143.703 277.38 143.346 276.59 143.103 276.046C142.981 275.774 142.886 275.564 142.823 275.421C142.792 275.35 142.768 275.296 142.752 275.26C142.744 275.242 142.738 275.228 142.734 275.219C142.732 275.215 142.73 275.211 142.729 275.208L142.729 275.207V275.206L142.38 274.415L141.867 275.111L141.866 275.113C141.865 275.114 141.864 275.116 141.862 275.119C141.859 275.123 141.854 275.131 141.847 275.14C141.833 275.159 141.812 275.186 141.785 275.223C141.732 275.297 141.652 275.408 141.549 275.552C141.342 275.841 141.039 276.268 140.654 276.823C139.884 277.933 138.784 279.555 137.462 281.605C134.818 285.704 131.284 291.516 127.725 298.37C120.614 312.062 113.369 329.973 112.966 346.707C112.239 376.88 130.968 396.64 150.119 416.613C169.313 436.63 188.95 456.878 190.66 488.119C191.608 505.43 191.791 518.813 189.603 532.048C187.416 545.277 182.856 558.385 174.288 575.126C173.279 577.098 171.892 579.576 170.754 581.567C170.671 581.712 170.588 581.853 170.508 581.992C170.824 580.696 171.205 579.106 171.603 577.351C172.644 572.749 173.819 566.992 174.344 562.421C177.747 532.765 174.715 517.91 167.533 490.782C159.256 459.513 137.225 441.645 116.014 424.068C94.7718 406.466 74.3607 389.165 68.8359 359.013C64.2833 334.166 62.1615 318.84 68.5303 294.501C77.3528 260.786 96.1479 246.466 120.768 222.542L123.168 220.196C124.56 218.826 125.529 217.982 126.815 216.704L127.389 216.126C135.775 207.561 142.135 194.708 146.661 183.639C148.927 178.098 150.739 172.988 152.118 169.067C152.809 167.104 153.388 165.445 153.863 164.174C154.347 162.881 154.699 162.055 154.931 161.708C154.962 161.661 154.99 161.622 155.016 161.59C155.025 161.607 155.036 161.626 155.046 161.647Z" fill="#2F5597" stroke="#2F5597"/>
<path d="M34.2666 373.222C34.2603 374.343 34.2562 375.724 34.2773 377.248C34.34 381.757 34.6122 387.575 35.6416 391.622C40.1081 409.182 50.6682 416.114 63.6562 428.364C71.8169 436.061 79.7347 440.012 87.708 443.817C95.6813 447.622 103.699 451.278 112.178 458.384C124.686 468.866 132.596 474.46 141.073 488.261C155.812 512.256 157.212 533.532 155.501 563.471C154.503 580.94 152.326 593.833 149.863 606.139C147.459 618.157 144.776 629.647 142.656 644.276C142.772 641.674 142.886 638.752 142.974 635.628C143.299 624.036 143.299 609.632 141.995 598.442C139.103 573.625 137.444 562.336 126.458 536.305C119.67 520.222 116.14 510.272 104.436 497.167C94.3536 485.878 86.0926 482.134 73.7832 473.59C69.0089 470.275 65.133 467.913 61.2656 465.561C57.3991 463.21 53.5412 460.869 48.7832 457.589C46.0544 455.707 42.6053 453.229 39.8369 451.219C38.4533 450.214 37.2401 449.327 36.373 448.691C35.9395 448.373 35.5921 448.118 35.3535 447.942C35.2345 447.855 35.1424 447.787 35.0801 447.741C35.0491 447.718 35.0257 447.7 35.0098 447.688C35.0019 447.682 34.9952 447.678 34.9912 447.676C34.9893 447.674 34.9883 447.672 34.9873 447.672L34.9854 447.671L34.4922 447.306L34.2344 447.863V447.864L34.2266 447.88C34.2217 447.89 34.2145 447.907 34.2051 447.927C34.1862 447.969 34.158 448.03 34.1221 448.11C34.0499 448.271 33.9451 448.508 33.8125 448.814C33.5473 449.426 33.1723 450.314 32.7305 451.422C31.8468 453.637 30.6955 456.735 29.627 460.263C27.4972 467.296 25.6654 476.129 27.0068 483.094C28.9763 493.32 34.2917 500.656 39.1055 505.43C41.5126 507.818 43.7975 509.568 45.4824 510.722C46.3248 511.299 47.0177 511.728 47.502 512.013C47.7442 512.156 47.935 512.263 48.0654 512.335C48.1303 512.37 48.1804 512.397 48.2148 512.416C48.2252 512.421 48.2347 512.426 48.2422 512.429C48.2469 512.433 48.2522 512.437 48.2588 512.441C48.2818 512.456 48.3168 512.479 48.3623 512.509C48.4533 512.569 48.5887 512.658 48.7656 512.776C49.1197 513.012 49.6402 513.361 50.3057 513.811C51.6368 514.713 53.5476 516.023 55.8633 517.658C60.495 520.928 66.7458 525.494 73.2236 530.68C79.7029 535.868 86.4012 541.669 91.9326 547.408C97.4757 553.159 101.802 558.802 103.594 563.673C108.059 575.807 109.115 583.576 108 596.457C107.534 601.848 105.674 608.553 103.919 613.933C103.043 616.619 102.197 618.965 101.569 620.639C101.422 621.033 101.286 621.388 101.165 621.703C101.018 620.937 100.83 619.961 100.612 618.875C100.097 616.301 99.4266 613.102 98.8076 610.621C94.2927 592.521 90.9071 582.044 80.9209 566.233C71.7065 551.644 58.445 545.519 45.6182 539.292C32.7723 533.056 20.3523 526.715 12.4404 511.766C7.19484 501.855 4.6065 495.882 2.49023 484.905C-2.18175 460.673 4.59371 445.678 13.8018 422.58C14.2435 421.473 14.5047 420.864 14.9609 419.752C18.8889 410.168 23.8489 398.421 27.8721 388.806C29.8832 384 31.6606 379.726 32.957 376.525C33.4765 375.242 33.9164 374.129 34.2666 373.222Z" fill="#2F5597" stroke="#2F5597"/>
</g>
</svg>
