<svg width="1433" height="455" viewBox="0 0 1433 455" fill="none" xmlns="http://www.w3.org/2000/svg">
<path d="M232.5 406H3.5" stroke="#2F5597" stroke-width="7" stroke-linecap="round" stroke-linejoin="round"/>
<path d="M1429.5 406L1190.5 406" stroke="#2F5597" stroke-width="7" stroke-linecap="round" stroke-linejoin="round"/>
<path d="M1113.83 374.856H1156.97V428.503H1163.68V454.856H1155.04V437.19H1106.3V454.856H1097.68V428.503H1103.21C1110.59 418.407 1114.14 400.525 1113.83 374.856ZM1122.57 383.602C1121.79 403.831 1118.68 418.799 1113.25 428.503H1146.53V383.602H1122.57Z" fill="#2F5597"/>
<path d="M1038.68 405.856C1038.68 394.164 1041.92 385.502 1048.41 379.873C1053.82 375.196 1060.43 372.856 1068.21 372.856C1076.87 372.856 1083.93 375.711 1089.43 381.419C1094.92 387.088 1097.68 394.936 1097.68 404.964C1097.68 413.091 1096.45 419.493 1094 424.171C1091.58 428.807 1088.04 432.415 1083.39 434.991C1078.76 437.568 1073.7 438.856 1068.21 438.856C1059.39 438.856 1052.26 436.022 1046.8 430.354C1041.39 424.685 1038.68 416.52 1038.68 405.856ZM1049.66 405.856C1049.66 413.943 1051.41 420.008 1054.93 424.051C1058.45 428.054 1062.87 430.057 1068.21 430.057C1073.5 430.057 1077.91 428.035 1081.43 423.991C1084.95 419.949 1086.7 413.785 1086.7 405.5C1086.7 397.691 1084.93 391.785 1081.37 387.781C1077.85 383.737 1073.47 381.716 1068.21 381.716C1062.87 381.716 1058.45 383.718 1054.93 387.722C1051.41 391.725 1049.66 397.771 1049.66 405.856Z" fill="#2F5597"/>
<path d="M981.68 374.856H1006.43C1012.51 374.856 1017.03 375.362 1019.97 376.374C1022.95 377.348 1025.49 379.157 1027.6 381.804C1029.74 384.45 1030.81 387.622 1030.81 391.319C1030.81 394.277 1030.18 396.865 1028.91 399.083C1027.67 401.263 1025.8 403.092 1023.3 404.571C1026.28 405.545 1028.76 407.373 1030.7 410.06C1032.68 412.705 1033.68 415.859 1033.68 419.516C1033.29 425.394 1031.13 429.753 1027.24 432.594C1023.34 435.435 1017.67 436.856 1010.25 436.856H981.68V374.856ZM992.412 400.952H1003.86C1008.43 400.952 1011.58 400.718 1013.28 400.251C1015 399.784 1016.52 398.851 1017.88 397.449C1019.23 396.01 1019.91 394.297 1019.91 392.312C1019.91 389.043 1018.71 386.765 1016.32 385.482C1013.99 384.197 1009.95 383.555 1004.23 383.555H992.412V400.952ZM992.412 428.215H1006.55C1012.62 428.215 1016.8 427.535 1019.07 426.172C1021.33 424.771 1022.53 422.378 1022.65 418.992C1022.65 417.006 1021.99 415.177 1020.68 413.504C1019.38 411.791 1017.66 410.721 1015.55 410.293C1013.44 409.826 1010.06 409.592 1005.41 409.592H992.412V428.215Z" fill="#2F5597"/>
<path d="M957.619 429.64C953.742 433.009 949.989 435.388 946.373 436.775C942.798 438.162 938.949 438.856 934.838 438.856C928.033 438.856 922.808 437.172 919.151 433.802C915.508 430.394 913.68 426.053 913.68 420.781C913.68 417.69 914.353 414.875 915.714 412.338C917.117 409.761 918.918 407.699 921.131 406.154C923.386 404.608 925.916 403.438 928.72 402.646C930.769 402.091 933.876 401.556 938.041 401.04C946.51 400.009 952.752 398.781 956.753 397.354C956.794 395.887 956.808 394.956 956.808 394.559C956.808 390.199 955.818 387.127 953.838 385.343C951.157 382.925 947.17 381.716 941.891 381.716C936.955 381.716 933.298 382.608 930.934 384.392C928.597 386.136 926.864 389.248 925.737 393.727L915.481 392.3C916.416 387.821 917.955 384.214 920.086 381.478C922.231 378.704 925.311 376.583 929.353 375.116C933.395 373.61 938.083 372.856 943.403 372.856C948.683 372.856 952.986 373.492 956.285 374.76C959.585 376.028 962.018 377.633 963.572 379.576C965.125 381.478 966.211 383.897 966.83 386.83C967.188 388.653 967.353 391.943 967.353 396.699V410.97C967.353 420.92 967.572 427.223 967.999 429.878C968.466 432.495 969.36 435.012 970.68 437.43H959.722C958.636 435.21 957.935 432.614 957.619 429.64ZM956.753 405.737C952.945 407.324 947.225 408.671 939.609 409.781C935.306 410.415 932.254 411.129 930.466 411.921C928.679 412.715 927.29 413.883 926.328 415.43C925.352 416.936 924.871 418.621 924.871 420.483C924.871 423.338 925.916 425.716 928.019 427.618C930.15 429.521 933.257 430.472 937.34 430.472C941.382 430.472 944.971 429.58 948.119 427.798C951.267 425.974 953.577 423.496 955.062 420.364C956.189 417.946 956.753 414.38 956.753 409.662V405.737Z" fill="#2F5597"/>
<path d="M877.511 408.889V400.506C881.979 400.465 885.018 400.287 886.628 399.97C888.265 399.653 889.819 398.702 891.276 397.116C892.72 395.531 893.441 393.549 893.441 391.171C893.441 388.277 892.484 385.977 890.569 384.273C888.681 382.528 886.225 381.657 883.214 381.657C877.247 381.657 873.07 385.204 870.683 392.3L860.622 390.635C863.759 378.784 871.322 372.856 883.325 372.856C890 372.856 895.217 374.701 898.978 378.387C902.78 382.072 904.681 386.474 904.681 391.587C904.681 396.74 902.211 400.842 897.271 403.894C900.407 405.598 902.766 407.779 904.335 410.436C905.903 413.051 906.68 416.164 906.68 419.77C906.68 425.439 904.64 430.037 900.56 433.565C896.48 437.092 890.777 438.856 883.45 438.856C869.212 438.856 860.955 432.455 858.68 419.652L868.615 417.51C869.517 421.554 871.349 424.685 874.097 426.906C876.872 429.124 880.05 430.235 883.616 430.235C887.197 430.235 890.152 429.224 892.511 427.203C894.898 425.141 896.092 422.525 896.092 419.354C896.092 416.896 895.356 414.756 893.857 412.932C892.373 411.109 890.777 409.979 889.098 409.544C887.405 409.067 884.352 408.83 879.911 408.83C879.564 408.83 878.759 408.849 877.511 408.889Z" fill="#2F5597"/>
<path d="M765.68 374.472H776.4V422.052L806.116 374.472H817.68V436.856H806.959V389.568L777.229 436.856H765.68V374.472ZM802.899 350.856H810.233C809.629 355.752 807.802 359.511 804.754 362.135C801.733 364.76 797.7 366.071 792.656 366.071C787.57 366.071 783.509 364.779 780.447 362.194C777.426 359.571 775.627 355.791 775.023 350.856H782.357C782.905 353.52 784.001 355.518 785.631 356.848C787.303 358.141 789.523 358.788 792.305 358.788C795.523 358.788 797.939 358.16 799.569 356.907C801.241 355.615 802.351 353.599 802.899 350.856Z" fill="#2F5597"/>
<path d="M741.066 374.856H751.68V436.856H741.066V374.856ZM681.68 374.856H692.294V399.083H705.746C714.51 399.083 721.256 400.777 725.972 404.163C730.73 407.51 733.109 412.142 733.109 418.058C733.109 423.234 731.119 427.67 727.155 431.367C723.218 435.026 716.916 436.856 708.222 436.856H681.68V374.856ZM692.294 428.215H703.45C710.169 428.215 714.969 427.399 717.834 425.764C720.7 424.13 722.147 421.579 722.147 418.116C722.147 415.431 721.075 413.037 718.961 410.934C716.833 408.833 712.131 407.782 704.855 407.782H692.294V428.215Z" fill="#2F5597"/>
<path d="M616.68 374.856H627.158V400.66H656.202V374.856H666.68V436.856H656.202V409.359H627.158V436.856H616.68V374.856Z" fill="#2F5597"/>
<path d="M555.68 374.856H566.205V399.083H579.545C588.236 399.083 594.926 400.777 599.603 404.163C604.321 407.51 606.68 412.142 606.68 418.058C606.68 423.234 604.707 427.67 600.775 431.367C596.871 435.026 590.622 436.856 582 436.856H555.68V374.856ZM566.205 428.215H577.269C583.932 428.215 588.691 427.399 591.533 425.764C594.375 424.13 595.795 421.579 595.795 418.116C595.795 415.431 594.747 413.037 592.636 410.934C590.539 408.833 585.877 407.782 578.662 407.782H566.205V428.215Z" fill="#2F5597"/>
<path d="M492.413 374.856H541.68V437.445H531.128V383.638H503.02V414.813C503.02 422.082 502.783 426.876 502.311 429.193C501.838 431.512 500.545 433.534 498.418 435.264C496.305 436.993 493.233 437.856 489.229 437.856C486.755 437.856 483.905 437.699 480.68 437.385V428.545H485.337C487.533 428.545 489.104 428.33 490.049 427.897C490.995 427.425 491.62 426.699 491.94 425.716C492.246 424.733 492.413 421.532 492.413 416.11V374.856Z" fill="#2F5597"/>
<path d="M468.317 417.095L479.33 418.462C477.597 424.924 474.369 429.938 469.673 433.506C464.977 437.072 458.968 438.856 451.658 438.856C442.462 438.856 435.152 436.022 429.744 430.354C424.363 424.646 421.68 416.659 421.68 406.392C421.68 395.768 424.405 387.524 429.856 381.657C435.306 375.791 442.378 372.856 451.071 372.856C459.485 372.856 466.361 375.73 471.686 381.478C477.024 387.227 479.68 395.312 479.68 405.737C479.68 406.373 479.666 407.324 479.624 408.591H432.707C433.098 415.528 435.055 420.841 438.563 424.527C442.085 428.213 446.473 430.057 451.714 430.057C455.627 430.057 458.967 429.026 461.735 426.964C464.502 424.903 466.696 421.614 468.317 417.095ZM433.294 399.792H468.429C467.954 394.481 466.612 390.496 464.404 387.841C461.008 383.718 456.605 381.657 451.183 381.657C446.291 381.657 442.168 383.302 438.8 386.591C435.488 389.882 433.643 394.281 433.294 399.792Z" fill="#2F5597"/>
<path d="M367.68 374.856H418.68V383.555H398.464V436.856H387.882V383.555H367.68V374.856Z" fill="#2F5597"/>
<path d="M306.68 405.856C306.68 394.164 309.925 385.502 316.401 379.873C321.828 375.196 328.417 372.856 336.208 372.856C344.866 372.856 351.944 375.711 357.441 381.419C362.938 387.088 365.68 394.936 365.68 404.964C365.68 413.091 364.463 419.493 362.001 424.171C359.595 428.807 356.056 432.415 351.398 434.991C346.768 437.568 341.705 438.856 336.208 438.856C327.395 438.856 320.262 436.022 314.806 430.354C309.393 424.685 306.68 416.52 306.68 405.856ZM317.646 405.856C317.646 413.943 319.408 420.008 322.933 424.051C326.444 428.054 330.878 430.057 336.208 430.057C341.509 430.057 345.915 428.035 349.44 423.991C352.951 419.949 354.713 413.785 354.713 405.5C354.713 397.691 352.937 391.785 349.37 387.781C345.859 383.737 341.467 381.716 336.208 381.716C330.878 381.716 326.444 383.718 322.933 387.722C319.408 391.725 317.646 397.771 317.646 405.856Z" fill="#2F5597"/>
<path d="M258.68 374.856H269.322V401.653C272.711 401.653 275.082 401.01 276.421 399.726C277.802 398.442 279.811 394.706 282.447 388.517C284.539 383.613 286.227 380.383 287.538 378.827C288.835 377.269 290.327 376.218 292.029 375.673C293.717 375.129 296.437 374.856 300.189 374.856H302.323V383.555L299.366 383.496C296.562 383.496 294.763 383.905 293.982 384.722C293.145 385.578 291.889 388.127 290.188 392.37C288.584 396.417 287.105 399.22 285.753 400.777C284.414 402.333 282.349 403.754 279.546 405.039C284.121 406.246 288.612 410.448 293.033 417.649L304.68 436.856H292.977L281.624 417.649C279.295 413.796 277.258 411.266 275.529 410.06C273.799 408.814 271.721 408.191 269.322 408.191V436.856H258.68V374.856Z" fill="#2F5597"/>
<path d="M1380.11 131.137C1413.37 140.081 1429.99 160.992 1429.99 193.87C1429.99 220.954 1419.54 243.188 1398.63 260.573C1377.84 277.831 1348.43 286.46 1310.38 286.46C1245.38 286.46 1205.01 259.187 1189.26 204.641L1270.14 198.594C1274.67 217.868 1287.58 227.505 1308.87 227.505C1320.71 227.505 1329.66 224.545 1335.7 218.624C1341.88 212.703 1344.96 204.452 1344.96 193.87C1344.96 183.667 1341.12 175.416 1333.44 169.117C1325.75 162.692 1315.23 159.48 1301.88 159.48H1278.64V109.973H1296.97C1307.93 109.973 1316.49 107.139 1322.67 101.47C1328.96 95.676 1332.11 87.676 1332.11 77.473C1332.11 62.482 1322.73 54.987 1303.96 54.987C1284.56 54.987 1273.28 63.616 1270.14 80.874L1193.61 71.993C1206.08 23.998 1243.37 0 1305.47 0C1339.86 0 1366.82 6.677 1386.34 20.03C1405.87 33.383 1415.63 51.333 1415.63 73.882C1415.63 101.092 1403.79 120.177 1380.11 131.137Z" fill="#2F5597"/>
<path d="M853.609 4.72412H966.229L1009.69 173.274L1052.96 4.72412H1165.2V281.736H1095.29V70.4811L1041.06 281.736H977.759L923.709 70.4811V281.736H853.609V4.72412Z" fill="#2F5597"/>
<path d="M549.9 69.725C572.82 23.242 615.4 0 677.63 0C723.86 0 759.39 12.345 784.21 37.036C809.15 61.726 821.62 96.494 821.62 141.34C821.62 188.076 809.34 223.978 784.77 249.046C760.21 273.989 725.69 286.46 681.22 286.46C641.16 286.46 610.36 278.586 588.82 262.84C567.28 246.968 552.23 226.434 543.66 201.24L624.16 179.51C631.97 207.979 649.92 222.214 678.01 222.214C710.76 222.214 729.47 204.515 734.13 169.117H650.61V117.721H734.51C729.09 82.071 710.13 64.246 677.63 64.246C652.31 64.246 635.43 75.835 626.99 99.014L549.9 69.725Z" fill="#2F5597"/>
<path d="M542.85 281.736H446.48L413.22 210.121C405.28 193.241 399.11 182.722 394.7 178.565C390.29 174.282 384.18 172.14 376.37 172.14V281.736H290.965V4.72401H376.37V111.107C383.81 110.729 389.6 108.084 393.76 103.171C397.91 98.258 404.4 84.149 413.22 60.844C419.64 43.586 426.13 31.241 432.68 23.809C439.23 16.25 449.88 10.834 464.62 7.55801C479.36 4.28301 502.47 2.64502 533.96 2.64502V61.222H529.62C515.01 61.222 504.17 63.994 497.12 69.536C490.06 75.079 484.27 84.086 479.73 96.557C475.2 108.903 470.29 118.161 464.99 124.334C459.83 130.381 452.71 135.231 443.64 138.884C455.99 142.915 466.76 149.906 475.95 159.858C485.15 169.684 494.91 185.052 505.24 205.964L542.85 281.736Z" fill="#2F5597"/>
<path d="M3.5 4.72412H163.736C190.442 4.72412 210.912 11.3381 225.147 24.5651C239.508 37.7921 246.688 54.1681 246.688 73.6941C246.688 90.0701 241.587 104.116 231.383 115.831C224.58 123.641 214.629 129.814 201.528 134.349C221.431 139.136 236.044 147.387 245.366 159.102C254.814 170.692 259.538 185.304 259.538 202.941C259.538 217.301 256.199 230.213 249.523 241.677C242.846 253.14 233.713 262.21 222.124 268.887C214.944 273.044 204.11 276.067 189.623 277.957C170.35 280.476 157.563 281.736 151.265 281.736H3.5V4.72412ZM89.854 113.375H127.078C140.431 113.375 149.69 111.107 154.855 106.572C160.146 101.911 162.791 95.2351 162.791 86.5431C162.791 78.4801 160.146 72.1821 154.855 67.6471C149.69 63.1121 140.62 60.8441 127.645 60.8441H89.854V113.375ZM89.854 222.214H133.503C148.242 222.214 158.634 219.632 164.681 214.467C170.727 209.176 173.751 202.122 173.751 193.304C173.751 185.116 170.727 178.565 164.681 173.652C158.76 168.613 148.305 166.094 133.314 166.094H89.854V222.214Z" fill="#2F5597"/>
</svg>
