<svg width="1427" height="287" viewBox="0 0 1427 287" fill="none" xmlns="http://www.w3.org/2000/svg">
<path d="M1376.61 131.137C1409.87 140.081 1426.49 160.992 1426.49 193.87C1426.49 220.954 1416.04 243.188 1395.13 260.573C1374.34 277.831 1344.93 286.46 1306.88 286.46C1241.88 286.46 1201.51 259.187 1185.76 204.641L1266.64 198.594C1271.17 217.868 1284.08 227.505 1305.37 227.505C1317.21 227.505 1326.16 224.545 1332.2 218.624C1338.38 212.703 1341.46 204.452 1341.46 193.87C1341.46 183.667 1337.62 175.416 1329.94 169.117C1322.25 162.692 1311.73 159.48 1298.38 159.48H1275.14V109.973H1293.47C1304.43 109.973 1312.99 107.139 1319.17 101.47C1325.46 95.676 1328.61 87.676 1328.61 77.473C1328.61 62.482 1319.23 54.987 1300.46 54.987C1281.06 54.987 1269.78 63.616 1266.64 80.874L1190.11 71.993C1202.58 23.998 1239.87 0 1301.97 0C1336.36 0 1363.32 6.677 1382.84 20.03C1402.37 33.383 1412.13 51.333 1412.13 73.882C1412.13 101.092 1400.29 120.177 1376.61 131.137Z" fill="#2F5597"/>
<path d="M850.109 4.72412H962.729L1006.19 173.274L1049.46 4.72412H1161.7V281.736H1091.79V70.4811L1037.56 281.736H974.259L920.209 70.4811V281.736H850.109V4.72412Z" fill="#2F5597"/>
<path d="M546.4 69.725C569.32 23.242 611.9 0 674.13 0C720.36 0 755.89 12.345 780.71 37.036C805.65 61.726 818.12 96.494 818.12 141.34C818.12 188.076 805.84 223.978 781.27 249.046C756.71 273.989 722.19 286.46 677.72 286.46C637.66 286.46 606.86 278.586 585.32 262.84C563.78 246.968 548.73 226.434 540.16 201.24L620.66 179.51C628.47 207.979 646.42 222.214 674.51 222.214C707.26 222.214 725.97 204.515 730.63 169.117H647.11V117.721H731.01C725.59 82.071 706.63 64.246 674.13 64.246C648.81 64.246 631.93 75.835 623.49 99.014L546.4 69.725Z" fill="#2F5597"/>
<path d="M539.35 281.736H442.98L409.72 210.121C401.78 193.241 395.61 182.722 391.2 178.565C386.79 174.282 380.68 172.14 372.87 172.14V281.736H287.465V4.72401H372.87V111.107C380.31 110.729 386.1 108.084 390.26 103.171C394.41 98.258 400.9 84.149 409.72 60.844C416.14 43.586 422.63 31.241 429.18 23.809C435.73 16.25 446.38 10.834 461.12 7.55801C475.86 4.28301 498.97 2.64502 530.46 2.64502V61.222H526.12C511.51 61.222 500.67 63.994 493.62 69.536C486.56 75.079 480.77 84.086 476.23 96.557C471.7 108.903 466.79 118.161 461.49 124.334C456.33 130.381 449.21 135.231 440.14 138.884C452.49 142.915 463.26 149.906 472.45 159.858C481.65 169.684 491.41 185.052 501.74 205.964L539.35 281.736Z" fill="#2F5597"/>
<path d="M0 4.72412H160.236C186.942 4.72412 207.412 11.3381 221.647 24.5651C236.008 37.7921 243.188 54.1681 243.188 73.6941C243.188 90.0701 238.087 104.116 227.883 115.831C221.08 123.641 211.129 129.814 198.028 134.349C217.931 139.136 232.544 147.387 241.866 159.102C251.314 170.692 256.038 185.304 256.038 202.941C256.038 217.301 252.699 230.213 246.023 241.677C239.346 253.14 230.213 262.21 218.624 268.887C211.444 273.044 200.61 276.067 186.123 277.957C166.85 280.476 154.063 281.736 147.765 281.736H0V4.72412ZM86.354 113.375H123.578C136.931 113.375 146.19 111.107 151.355 106.572C156.646 101.911 159.291 95.2351 159.291 86.5431C159.291 78.4801 156.646 72.1821 151.355 67.6471C146.19 63.1121 137.12 60.8441 124.145 60.8441H86.354V113.375ZM86.354 222.214H130.003C144.742 222.214 155.134 219.632 161.181 214.467C167.227 209.176 170.251 202.122 170.251 193.304C170.251 185.116 167.227 178.565 161.181 173.652C155.26 168.613 144.805 166.094 129.814 166.094H86.354V222.214Z" fill="#2F5597"/>
</svg>
