<svg width="24" height="24" viewBox="0 0 24 24" fill="none" xmlns="http://www.w3.org/2000/svg">
<g clip-path="url(#clip0_349_3438)">
<path d="M12.0078 0.75H12.0098C13.4722 0.744703 14.9214 1.0305 16.2725 1.58984C17.6236 2.14926 18.8506 2.97146 19.8809 4.00879L19.8867 4.01465C20.9428 5.05274 21.7842 6.28899 22.3613 7.65234C22.9384 9.01569 23.2401 10.4797 23.25 11.96C23.221 14.9223 22.0236 17.754 19.918 19.8398C17.8096 21.9283 14.9609 23.0997 11.9922 23.0996C10.128 23.0851 8.2972 22.6027 6.66895 21.6953C6.54218 21.6247 6.39869 21.5924 6.25586 21.6016L6.11426 21.625L1.06348 22.9453L2.4043 18.0322C2.45669 17.84 2.43111 17.6348 2.33203 17.4619C1.35873 15.7658 0.847811 13.8438 0.851562 11.8887C0.855349 9.93349 1.37366 8.01365 2.35352 6.32129C3.33341 4.6289 4.74105 3.22284 6.43555 2.24512C8.12983 1.26761 10.0514 0.751982 12.0078 0.75Z" stroke="white" stroke-width="1.5" stroke-linejoin="round"/>
<path d="M15.6983 13.5582C15.9932 13.6565 17.5823 14.4429 17.91 14.6067C18.2376 14.7706 18.4506 14.8525 18.5981 15.0163C18.6895 15.5377 18.621 16.0746 18.4015 16.5563C18.1666 16.9515 17.8513 17.2928 17.4759 17.5582C17.1005 17.8235 16.6734 18.0068 16.2225 18.0963C14.8684 18.2517 13.5004 17.9643 12.3234 17.2772C10.0794 16.1449 8.16626 14.4519 6.76953 12.3623C6.00508 11.3985 5.54331 10.2298 5.44251 9.00375C5.4155 8.49189 5.49798 7.98017 5.68444 7.50273C5.8709 7.02528 6.15704 6.5931 6.52378 6.23501C6.63032 6.10806 6.76311 6.0057 6.91301 5.93499C7.06291 5.86429 7.22635 5.82691 7.39208 5.82544H8.03102C8.244 5.84182 8.50613 5.74352 8.76826 6.38246C9.03038 7.0214 9.76762 8.62694 9.76762 8.79077C9.81358 8.87935 9.83757 8.97768 9.83757 9.07747C9.83757 9.17726 9.81358 9.27559 9.76762 9.36417C9.14507 10.5929 8.47336 10.5601 8.81741 11.1335C9.79988 12.8856 11.3563 14.2453 13.2244 14.9835C13.5521 15.2293 13.7487 15.2129 13.9289 14.9835C14.2959 14.5824 14.6405 14.1613 14.961 13.7221C15.174 13.3944 15.4034 13.4599 15.6983 13.5582Z" stroke="white" stroke-width="1.2"/>
</g>
<defs>
<clipPath id="clip0_349_3438">
<rect width="24" height="24" fill="white"/>
</clipPath>
</defs>
</svg>
